<?xml version="1.0" encoding="utf-8"?>
<!-- Generator: Adobe Illustrator 24.0.2, SVG Export Plug-In . SVG Version: 6.00 Build 0)  -->
<svg version="1.1" id="svg2" xmlns="http://www.w3.org/2000/svg" xmlns:xlink="http://www.w3.org/1999/xlink" x="0px" y="0px"
	 viewBox="0 0 377.9 205.1" style="enable-background:new 0 0 377.9 205.1;" xml:space="preserve">
<style type="text/css">
	.st0{enable-background:new    ;}
	.st1{fill:#FFFFFF;}
	.st2{fill-rule:evenodd;clip-rule:evenodd;fill:#4D9335;}
	.st3{clip-path:url(#SVGID_2_);}
	.st4{fill-rule:evenodd;clip-rule:evenodd;fill:#CFDF97;}
	.st5{fill-rule:evenodd;clip-rule:evenodd;fill:#CEDF96;}
	.st6{fill-rule:evenodd;clip-rule:evenodd;fill:#CEDE96;}
	.st7{fill-rule:evenodd;clip-rule:evenodd;fill:#CDDE95;}
	.st8{fill-rule:evenodd;clip-rule:evenodd;fill:#CCDD94;}
	.st9{fill-rule:evenodd;clip-rule:evenodd;fill:#CBDD94;}
	.st10{fill-rule:evenodd;clip-rule:evenodd;fill:#CBDD93;}
	.st11{fill-rule:evenodd;clip-rule:evenodd;fill:#CADC93;}
	.st12{fill-rule:evenodd;clip-rule:evenodd;fill:#CADC92;}
	.st13{fill-rule:evenodd;clip-rule:evenodd;fill:#C9DC92;}
	.st14{fill-rule:evenodd;clip-rule:evenodd;fill:#C9DB91;}
	.st15{fill-rule:evenodd;clip-rule:evenodd;fill:#C8DB90;}
	.st16{fill-rule:evenodd;clip-rule:evenodd;fill:#C7DB90;}
	.st17{fill-rule:evenodd;clip-rule:evenodd;fill:#C7DB8F;}
	.st18{fill-rule:evenodd;clip-rule:evenodd;fill:#C6DA8F;}
	.st19{fill-rule:evenodd;clip-rule:evenodd;fill:#C6DA8E;}
	.st20{fill-rule:evenodd;clip-rule:evenodd;fill:#C5DA8E;}
	.st21{fill-rule:evenodd;clip-rule:evenodd;fill:#C4D98D;}
	.st22{fill-rule:evenodd;clip-rule:evenodd;fill:#C3D98C;}
	.st23{fill-rule:evenodd;clip-rule:evenodd;fill:#C3D88C;}
	.st24{fill-rule:evenodd;clip-rule:evenodd;fill:#C2D88B;}
	.st25{fill-rule:evenodd;clip-rule:evenodd;fill:#C2D88A;}
	.st26{fill-rule:evenodd;clip-rule:evenodd;fill:#C1D78A;}
	.st27{fill-rule:evenodd;clip-rule:evenodd;fill:#C0D789;}
	.st28{fill-rule:evenodd;clip-rule:evenodd;fill:#BFD688;}
	.st29{fill-rule:evenodd;clip-rule:evenodd;fill:#BED687;}
	.st30{fill-rule:evenodd;clip-rule:evenodd;fill:#BDD587;}
	.st31{fill-rule:evenodd;clip-rule:evenodd;fill:#BDD586;}
	.st32{fill-rule:evenodd;clip-rule:evenodd;fill:#BCD585;}
	.st33{fill-rule:evenodd;clip-rule:evenodd;fill:#BCD485;}
	.st34{fill-rule:evenodd;clip-rule:evenodd;fill:#BBD484;}
	.st35{fill-rule:evenodd;clip-rule:evenodd;fill:#BAD484;}
	.st36{fill-rule:evenodd;clip-rule:evenodd;fill:#BAD383;}
	.st37{fill-rule:evenodd;clip-rule:evenodd;fill:#B9D383;}
	.st38{fill-rule:evenodd;clip-rule:evenodd;fill:#B9D382;}
	.st39{fill-rule:evenodd;clip-rule:evenodd;fill:#B8D282;}
	.st40{fill-rule:evenodd;clip-rule:evenodd;fill:#B8D281;}
	.st41{fill-rule:evenodd;clip-rule:evenodd;fill:#B7D281;}
	.st42{fill-rule:evenodd;clip-rule:evenodd;fill:#B6D280;}
	.st43{fill-rule:evenodd;clip-rule:evenodd;fill:#B6D17F;}
	.st44{fill-rule:evenodd;clip-rule:evenodd;fill:#B5D17F;}
	.st45{fill-rule:evenodd;clip-rule:evenodd;fill:#B5D17E;}
	.st46{fill-rule:evenodd;clip-rule:evenodd;fill:#B4D07E;}
	.st47{fill-rule:evenodd;clip-rule:evenodd;fill:#B3D07D;}
	.st48{fill-rule:evenodd;clip-rule:evenodd;fill:#B2CF7C;}
	.st49{fill-rule:evenodd;clip-rule:evenodd;fill:#B1CF7B;}
	.st50{fill-rule:evenodd;clip-rule:evenodd;fill:#B1CE7B;}
	.st51{fill-rule:evenodd;clip-rule:evenodd;fill:#B0CE7A;}
	.st52{fill-rule:evenodd;clip-rule:evenodd;fill:#AFCE79;}
	.st53{fill-rule:evenodd;clip-rule:evenodd;fill:#AFCD79;}
	.st54{fill-rule:evenodd;clip-rule:evenodd;fill:#AECD78;}
	.st55{fill-rule:evenodd;clip-rule:evenodd;fill:#ADCC77;}
	.st56{fill-rule:evenodd;clip-rule:evenodd;fill:#ACCC77;}
	.st57{fill-rule:evenodd;clip-rule:evenodd;fill:#ACCC76;}
	.st58{fill-rule:evenodd;clip-rule:evenodd;fill:#ABCB76;}
	.st59{fill-rule:evenodd;clip-rule:evenodd;fill:#ABCB75;}
	.st60{fill-rule:evenodd;clip-rule:evenodd;fill:#AACB75;}
	.st61{fill-rule:evenodd;clip-rule:evenodd;fill:#A9CA74;}
	.st62{fill-rule:evenodd;clip-rule:evenodd;fill:#A8C972;}
	.st63{fill-rule:evenodd;clip-rule:evenodd;fill:#A6C870;}
	.st64{fill-rule:evenodd;clip-rule:evenodd;fill:#A4C76F;}
	.st65{fill-rule:evenodd;clip-rule:evenodd;fill:#A2C66D;}
	.st66{fill-rule:evenodd;clip-rule:evenodd;fill:#A0C56B;}
	.st67{fill-rule:evenodd;clip-rule:evenodd;fill:#9EC46A;}
	.st68{fill-rule:evenodd;clip-rule:evenodd;fill:#9CC368;}
	.st69{fill-rule:evenodd;clip-rule:evenodd;fill:#9BC266;}
	.st70{fill-rule:evenodd;clip-rule:evenodd;fill:#99C164;}
	.st71{fill-rule:evenodd;clip-rule:evenodd;fill:#97C063;}
	.st72{fill-rule:evenodd;clip-rule:evenodd;fill:#95BF61;}
	.st73{fill-rule:evenodd;clip-rule:evenodd;fill:#93BE5F;}
	.st74{fill-rule:evenodd;clip-rule:evenodd;fill:#91BD5D;}
	.st75{fill-rule:evenodd;clip-rule:evenodd;fill:#8FBC5C;}
	.st76{fill-rule:evenodd;clip-rule:evenodd;fill:#8EBB5A;}
	.st77{fill-rule:evenodd;clip-rule:evenodd;fill:#8CBA58;}
	.st78{fill-rule:evenodd;clip-rule:evenodd;fill:#8AB956;}
	.st79{fill-rule:evenodd;clip-rule:evenodd;fill:#88B855;}
	.st80{fill-rule:evenodd;clip-rule:evenodd;fill:#86B753;}
	.st81{fill-rule:evenodd;clip-rule:evenodd;fill:#84B651;}
	.st82{fill-rule:evenodd;clip-rule:evenodd;fill:#83B551;}
	.st83{fill-rule:evenodd;clip-rule:evenodd;fill:#82B450;}
	.st84{fill-rule:evenodd;clip-rule:evenodd;fill:#81B450;}
	.st85{fill-rule:evenodd;clip-rule:evenodd;fill:#80B34F;}
	.st86{fill-rule:evenodd;clip-rule:evenodd;fill:#7FB24F;}
	.st87{fill-rule:evenodd;clip-rule:evenodd;fill:#7EB14E;}
	.st88{fill-rule:evenodd;clip-rule:evenodd;fill:#7DB04E;}
	.st89{fill-rule:evenodd;clip-rule:evenodd;fill:#7CAF4D;}
	.st90{fill-rule:evenodd;clip-rule:evenodd;fill:#7AAF4D;}
	.st91{fill-rule:evenodd;clip-rule:evenodd;fill:#79AE4C;}
	.st92{fill-rule:evenodd;clip-rule:evenodd;fill:#78AD4C;}
	.st93{fill-rule:evenodd;clip-rule:evenodd;fill:#77AC4B;}
	.st94{fill-rule:evenodd;clip-rule:evenodd;fill:#76AB4B;}
	.st95{fill-rule:evenodd;clip-rule:evenodd;fill:#75AA4A;}
	.st96{fill-rule:evenodd;clip-rule:evenodd;fill:#74AA4A;}
	.st97{fill-rule:evenodd;clip-rule:evenodd;fill:#73A949;}
	.st98{fill-rule:evenodd;clip-rule:evenodd;fill:#72A849;}
	.st99{fill-rule:evenodd;clip-rule:evenodd;fill:#71A748;}
	.st100{fill-rule:evenodd;clip-rule:evenodd;fill:#70A648;}
	.st101{fill-rule:evenodd;clip-rule:evenodd;fill:#6FA547;}
	.st102{fill-rule:evenodd;clip-rule:evenodd;fill:#6EA547;}
	.st103{fill-rule:evenodd;clip-rule:evenodd;fill:#6CA446;}
	.st104{fill-rule:evenodd;clip-rule:evenodd;fill:#6BA346;}
	.st105{fill-rule:evenodd;clip-rule:evenodd;fill:#6AA245;}
	.st106{fill-rule:evenodd;clip-rule:evenodd;fill:#69A145;}
	.st107{fill-rule:evenodd;clip-rule:evenodd;fill:#68A044;}
	.st108{fill-rule:evenodd;clip-rule:evenodd;fill:#67A044;}
	.st109{fill-rule:evenodd;clip-rule:evenodd;fill:#669F43;}
	.st110{fill-rule:evenodd;clip-rule:evenodd;fill:#659E43;}
	.st111{fill-rule:evenodd;clip-rule:evenodd;fill:#649D42;}
	.st112{fill-rule:evenodd;clip-rule:evenodd;fill:#639C42;}
	.st113{fill-rule:evenodd;clip-rule:evenodd;fill:#629B41;}
	.st114{fill-rule:evenodd;clip-rule:evenodd;fill:#619B41;}
	.st115{fill-rule:evenodd;clip-rule:evenodd;fill:#5F9A40;}
	.st116{fill-rule:evenodd;clip-rule:evenodd;fill:#5E9940;}
	.st117{fill-rule:evenodd;clip-rule:evenodd;fill:#5D983F;}
	.st118{fill-rule:evenodd;clip-rule:evenodd;fill:#5C973F;}
	.st119{fill-rule:evenodd;clip-rule:evenodd;fill:#5B963E;}
	.st120{fill-rule:evenodd;clip-rule:evenodd;fill:#5A963E;}
	.st121{fill-rule:evenodd;clip-rule:evenodd;fill:#59953D;}
	.st122{fill-rule:evenodd;clip-rule:evenodd;fill:#58943D;}
	.st123{fill-rule:evenodd;clip-rule:evenodd;fill:#58933D;}
	.st124{fill-rule:evenodd;clip-rule:evenodd;fill:#57923C;}
	.st125{fill-rule:evenodd;clip-rule:evenodd;fill:#56913B;}
	.st126{fill-rule:evenodd;clip-rule:evenodd;fill:#56903B;}
	.st127{fill-rule:evenodd;clip-rule:evenodd;fill:#568F3B;}
	.st128{fill-rule:evenodd;clip-rule:evenodd;fill:#558E3A;}
	.st129{fill-rule:evenodd;clip-rule:evenodd;fill:#558D3A;}
	.st130{fill-rule:evenodd;clip-rule:evenodd;fill:#548C39;}
	.st131{fill-rule:evenodd;clip-rule:evenodd;fill:#548B39;}
	.st132{fill-rule:evenodd;clip-rule:evenodd;fill:#538A38;}
	.st133{fill-rule:evenodd;clip-rule:evenodd;fill:#538938;}
	.st134{fill-rule:evenodd;clip-rule:evenodd;fill:#528837;}
	.st135{fill-rule:evenodd;clip-rule:evenodd;fill:#528737;}
	.st136{fill-rule:evenodd;clip-rule:evenodd;fill:#528637;}
	.st137{fill-rule:evenodd;clip-rule:evenodd;fill:#518536;}
	.st138{fill-rule:evenodd;clip-rule:evenodd;fill:#518436;}
	.st139{fill-rule:evenodd;clip-rule:evenodd;fill:#508435;}
	.st140{fill-rule:evenodd;clip-rule:evenodd;fill:#508335;}
	.st141{fill-rule:evenodd;clip-rule:evenodd;fill:#508235;}
	.st142{fill-rule:evenodd;clip-rule:evenodd;fill:#4F8134;}
	.st143{fill-rule:evenodd;clip-rule:evenodd;fill:#4F8034;}
	.st144{fill-rule:evenodd;clip-rule:evenodd;fill:#4E7F33;}
	.st145{fill-rule:evenodd;clip-rule:evenodd;fill:#4E7E33;}
	.st146{fill-rule:evenodd;clip-rule:evenodd;fill:#4D7D32;}
	.st147{fill-rule:evenodd;clip-rule:evenodd;fill:#4D7C32;}
	.st148{fill-rule:evenodd;clip-rule:evenodd;fill:#4C7B31;}
	.st149{fill-rule:evenodd;clip-rule:evenodd;fill:#4C7A31;}
	.st150{fill-rule:evenodd;clip-rule:evenodd;fill:#4C7931;}
	.st151{fill-rule:evenodd;clip-rule:evenodd;fill:#4B7930;}
	.st152{fill-rule:evenodd;clip-rule:evenodd;fill:#4B7830;}
	.st153{fill-rule:evenodd;clip-rule:evenodd;fill:#4B7730;}
	.st154{fill-rule:evenodd;clip-rule:evenodd;fill:#4A762F;}
	.st155{fill-rule:evenodd;clip-rule:evenodd;fill:#4A752F;}
	.st156{fill-rule:evenodd;clip-rule:evenodd;fill:#49742E;}
	.st157{fill-rule:evenodd;clip-rule:evenodd;fill:#49732E;}
	.st158{fill-rule:evenodd;clip-rule:evenodd;fill:#48722D;}
	.st159{fill-rule:evenodd;clip-rule:evenodd;fill:#48712D;}
	.st160{fill-rule:evenodd;clip-rule:evenodd;fill:#47702C;}
	.st161{fill-rule:evenodd;clip-rule:evenodd;fill:#476F2C;}
	.st162{fill-rule:evenodd;clip-rule:evenodd;fill:#476E2C;}
	.st163{fill-rule:evenodd;clip-rule:evenodd;fill:#466E2B;}
	.st164{fill-rule:evenodd;clip-rule:evenodd;fill:#466D2B;}
	.st165{fill-rule:evenodd;clip-rule:evenodd;fill:#466C2B;}
	.st166{fill-rule:evenodd;clip-rule:evenodd;fill:#456C2A;}
	.st167{fill-rule:evenodd;clip-rule:evenodd;fill:#456B2A;}
	.st168{fill-rule:evenodd;clip-rule:evenodd;fill:#456A2A;}
	.st169{fill-rule:evenodd;clip-rule:evenodd;fill:#446A2A;}
	.st170{fill-rule:evenodd;clip-rule:evenodd;fill:#44692A;}
	.st171{fill-rule:evenodd;clip-rule:evenodd;fill:#446929;}
	.st172{fill-rule:evenodd;clip-rule:evenodd;fill:#436829;}
	.st173{fill-rule:evenodd;clip-rule:evenodd;fill:#436729;}
	.st174{fill-rule:evenodd;clip-rule:evenodd;fill:#426629;}
	.st175{fill-rule:evenodd;clip-rule:evenodd;fill:#416529;}
	.st176{fill-rule:evenodd;clip-rule:evenodd;fill:#416428;}
	.st177{fill-rule:evenodd;clip-rule:evenodd;fill:#406328;}
	.st178{fill-rule:evenodd;clip-rule:evenodd;fill:#406228;}
	.st179{fill-rule:evenodd;clip-rule:evenodd;fill:#3F6228;}
	.st180{fill-rule:evenodd;clip-rule:evenodd;fill:#3F6128;}
	.st181{fill-rule:evenodd;clip-rule:evenodd;fill:#3F6028;}
	.st182{fill-rule:evenodd;clip-rule:evenodd;fill:#3E6028;}
	.st183{fill-rule:evenodd;clip-rule:evenodd;fill:#3E6027;}
	.st184{fill-rule:evenodd;clip-rule:evenodd;fill:#3E5F27;}
	.st185{fill-rule:evenodd;clip-rule:evenodd;fill:#3D5F27;}
	.st186{fill-rule:evenodd;clip-rule:evenodd;fill:#3D5E27;}
	.st187{fill-rule:evenodd;clip-rule:evenodd;fill:#3D5D27;}
	.st188{fill-rule:evenodd;clip-rule:evenodd;fill:#3C5D27;}
	.st189{fill-rule:evenodd;clip-rule:evenodd;fill:#3C5C27;}
	.st190{fill-rule:evenodd;clip-rule:evenodd;fill:#3B5B27;}
	.st191{fill-rule:evenodd;clip-rule:evenodd;fill:#3B5B26;}
	.st192{fill-rule:evenodd;clip-rule:evenodd;fill:#3B5A26;}
	.st193{fill-rule:evenodd;clip-rule:evenodd;fill:#3A5A26;}
	.st194{fill-rule:evenodd;clip-rule:evenodd;fill:#3A5926;}
</style>
<g class="st0">
	<path class="st1" d="M187.1,35.9v1.8c0,0.6-0.2,1.1-0.5,1.6l-16.2,27.4h16.4v3.9h-22.2v-1.9c0-0.3,0-0.5,0.1-0.7
		c0.1-0.2,0.2-0.4,0.3-0.7l16.2-27.5h-15.8v-3.9H187.1z"/>
</g>
<g class="st0">
	<path class="st1" d="M197.6,70.6h-4.8V35.9h4.8C197.6,35.9,197.6,70.6,197.6,70.6z"/>
</g>
<g class="st0">
	<path class="st1" d="M226.1,35.9v3.9h-15.4v11.4h12.4V55h-12.4v11.7h15.5l0,3.9h-20.3V35.9H226.1z"/>
</g>
<g class="st0">
	<path class="st1" d="M236.8,66.6h13.4v4H232V35.9h4.8L236.8,66.6L236.8,66.6z"/>
</g>
<g class="st0">
	<path class="st1" d="M283.8,53.3c0,2.6-0.4,5-1.1,7.2s-1.9,4-3.2,5.6s-3.1,2.8-5,3.7c-2,0.9-4.1,1.3-6.5,1.3
		c-2.4,0-4.5-0.4-6.5-1.3c-2-0.9-3.7-2.1-5.1-3.7c-1.4-1.6-2.5-3.4-3.3-5.6s-1.2-4.5-1.2-7.2c0-2.6,0.4-5,1.2-7.1s1.9-4,3.3-5.6
		c1.4-1.6,3.1-2.8,5.1-3.7c2-0.9,4.1-1.3,6.5-1.3c2.4,0,4.6,0.4,6.5,1.3c2,0.9,3.6,2.1,5,3.7c1.4,1.6,2.5,3.5,3.2,5.6
		S283.8,50.7,283.8,53.3z M278.9,53.3c0-2.1-0.3-4-0.8-5.7c-0.5-1.7-1.3-3.1-2.2-4.3c-0.9-1.2-2.1-2.1-3.5-2.7
		c-1.4-0.6-2.9-0.9-4.6-0.9s-3.2,0.3-4.6,0.9c-1.4,0.6-2.6,1.5-3.5,2.7c-1,1.2-1.7,2.6-2.2,4.3c-0.5,1.7-0.8,3.6-0.8,5.7
		s0.3,4,0.8,5.7c0.5,1.7,1.3,3.1,2.2,4.3c0.9,1.2,2.1,2.1,3.5,2.7c1.4,0.6,2.9,0.9,4.6,0.9s3.2-0.3,4.6-0.9c1.4-0.6,2.5-1.5,3.5-2.7
		c1-1.2,1.7-2.6,2.2-4.3S278.9,55.4,278.9,53.3z"/>
</g>
<g class="st0">
	<path class="st1" d="M293.1,36.1c0.2,0.1,0.5,0.3,0.7,0.7l18.8,25.9c0-0.4-0.1-0.8-0.1-1.2s0-0.8,0-1.2V35.9h4.2v34.7h-2.4
		c-0.4,0-0.7-0.1-0.9-0.2s-0.5-0.3-0.8-0.7l-18.8-25.9c0,0.4,0.1,0.8,0.1,1.2s0,0.7,0,1.1v24.5h-4.2V35.9h2.5
		C292.5,35.9,292.9,36,293.1,36.1z"/>
</g>
<g class="st0">
	<path class="st1" d="M336.2,56.8v13.9h-4.8V56.8l-10.8-20.9h4.2c0.4,0,0.7,0.1,1,0.3c0.2,0.2,0.5,0.5,0.6,0.8l5.9,13.4
		c0.3,0.5,0.6,1.1,0.8,1.5s0.4,1,0.6,1.4c0.2-0.5,0.4-1,0.6-1.4c0.2-0.5,0.5-1,0.8-1.5l5.9-13.4c0.1-0.3,0.3-0.5,0.6-0.8
		c0.3-0.2,0.6-0.4,1-0.4h4.3C347,35.9,336.2,56.8,336.2,56.8z"/>
</g>
<g class="st0">
	<path class="st1" d="M162.1,125.6h-4.8v-15.7h-16.6v15.7h-4.8V90.9h4.8v15.4h16.6V90.9h4.8V125.6z"/>
</g>
<g class="st0">
	<path class="st1" d="M199.7,108.2c0,2.6-0.4,5-1.1,7.2s-1.9,4-3.2,5.6s-3.1,2.8-5,3.7c-2,0.9-4.1,1.3-6.5,1.3
		c-2.4,0-4.6-0.4-6.5-1.3c-2-0.9-3.7-2.1-5.1-3.7c-1.4-1.6-2.5-3.4-3.3-5.6s-1.2-4.6-1.2-7.2c0-2.6,0.4-5,1.2-7.1s1.9-4.1,3.3-5.6
		c1.4-1.6,3.1-2.8,5.1-3.7s4.1-1.3,6.5-1.3c2.4,0,4.6,0.4,6.5,1.3s3.6,2.1,5,3.7c1.4,1.6,2.5,3.4,3.2,5.6S199.7,105.6,199.7,108.2z
		 M194.8,108.2c0-2.1-0.3-4-0.8-5.7s-1.3-3.1-2.2-4.3c-0.9-1.2-2.1-2.1-3.5-2.7c-1.4-0.6-2.9-0.9-4.6-0.9s-3.2,0.3-4.6,0.9
		c-1.4,0.6-2.6,1.5-3.5,2.7c-1,1.2-1.7,2.6-2.2,4.3c-0.5,1.7-0.8,3.6-0.8,5.7s0.3,4,0.8,5.7s1.3,3.1,2.2,4.3
		c0.9,1.2,2.1,2.1,3.5,2.7c1.4,0.6,2.9,0.9,4.6,0.9s3.2-0.3,4.6-0.9c1.4-0.6,2.5-1.5,3.5-2.7c1-1.2,1.7-2.6,2.2-4.3
		S194.8,110.3,194.8,108.2z"/>
</g>
<g class="st0">
	<path class="st1" d="M210.3,111.2v14.4h-4.8V90.9h9.5c2.1,0,3.9,0.2,5.5,0.7s2.8,1.1,3.8,1.9s1.7,1.8,2.2,3s0.7,2.5,0.7,4
		c0,1.2-0.2,2.3-0.5,3.4c-0.3,1-0.9,2-1.6,2.8c-0.7,0.8-1.5,1.6-2.5,2.2c-1,0.6-2.1,1.1-3.4,1.4c0.6,0.4,1.2,0.9,1.6,1.5l9.3,13.7
		h-4.3c-0.8,0-1.5-0.3-1.9-1l-8.2-12.3c-0.3-0.4-0.6-0.7-0.9-0.8s-0.8-0.2-1.4-0.2L210.3,111.2L210.3,111.2z M210.3,107.6h4.5
		c1.3,0,2.4-0.2,3.3-0.5s1.8-0.8,2.4-1.4c0.6-0.6,1.1-1.3,1.5-2.2c0.3-0.8,0.5-1.8,0.5-2.8c0-4.1-2.5-6.2-7.5-6.2h-4.7V107.6z"/>
</g>
<g class="st0">
	<path class="st1" d="M245.7,111.7v13.9h-4.8v-13.8l-10.8-20.9h4.2c0.4,0,0.7,0.1,1,0.3c0.2,0.2,0.5,0.5,0.6,0.8l5.9,13.4
		c0.3,0.5,0.6,1.1,0.8,1.5s0.4,1,0.6,1.4c0.2-0.5,0.4-0.9,0.6-1.4c0.2-0.5,0.5-1,0.8-1.5l5.9-13.4c0.1-0.3,0.3-0.5,0.6-0.8
		c0.3-0.2,0.6-0.4,1-0.4h4.3L245.7,111.7z"/>
</g>
<g class="st0">
	<path class="st1" d="M280.2,90.9v1.8c0,0.6-0.2,1.1-0.5,1.6l-16.2,27.4h16.4v3.9h-22.2v-1.9c0-0.3,0-0.5,0.1-0.7
		c0.1-0.2,0.2-0.4,0.3-0.7l16.2-27.5h-15.8v-3.9C258.6,90.9,280.2,90.9,280.2,90.9z"/>
</g>
<g class="st0">
	<path class="st1" d="M314.8,108.2c0,2.6-0.4,5-1.1,7.2s-1.9,4-3.2,5.6s-3.1,2.8-5,3.7c-2,0.9-4.1,1.3-6.5,1.3
		c-2.4,0-4.5-0.4-6.5-1.3c-2-0.9-3.7-2.1-5.1-3.7c-1.4-1.6-2.5-3.4-3.3-5.6s-1.2-4.6-1.2-7.2c0-2.6,0.4-5,1.2-7.1s1.9-4.1,3.3-5.6
		c1.4-1.6,3.1-2.8,5.1-3.7s4.1-1.3,6.5-1.3c2.4,0,4.6,0.4,6.5,1.3s3.6,2.1,5,3.7c1.4,1.6,2.5,3.4,3.2,5.6S314.8,105.6,314.8,108.2z
		 M309.9,108.2c0-2.1-0.3-4-0.8-5.7s-1.3-3.1-2.2-4.3c-0.9-1.2-2.1-2.1-3.5-2.7c-1.4-0.6-2.9-0.9-4.6-0.9s-3.2,0.3-4.6,0.9
		c-1.4,0.6-2.6,1.5-3.5,2.7c-1,1.2-1.7,2.6-2.2,4.3c-0.5,1.7-0.8,3.6-0.8,5.7s0.3,4,0.8,5.7s1.3,3.1,2.2,4.3
		c0.9,1.2,2.1,2.1,3.5,2.7c1.4,0.6,2.9,0.9,4.6,0.9s3.2-0.3,4.6-0.9c1.4-0.6,2.5-1.5,3.5-2.7c1-1.2,1.7-2.6,2.2-4.3
		S309.9,110.3,309.9,108.2z"/>
</g>
<g class="st0">
	<path class="st1" d="M324,91c0.2,0.1,0.5,0.3,0.7,0.7l18.8,25.9c0-0.4-0.1-0.8-0.1-1.2s0-0.8,0-1.2V90.9h4.2v34.7h-2.4
		c-0.4,0-0.7-0.1-0.9-0.2s-0.5-0.3-0.8-0.7l-18.8-25.9c0,0.4,0.1,0.8,0.1,1.2s0,0.7,0,1.1v24.5h-4.2V90.9h2.5
		C323.5,90.9,323.8,90.9,324,91L324,91z"/>
</g>
<g class="st0">
	<path class="st1" d="M377.3,90.9v4h-10.1v30.7h-4.8V94.9h-10.1v-4H377.3L377.3,90.9z"/>
</g>
<path id="path20" class="st2" d="M0,146.4l192.3-1.6l184.8,1.5l-183.9,2.1L0,146.4z"/>
<g class="st0">
	<path class="st1" d="M20.4,182.7H9.9l-2.2,5.9H7l7.9-20.7h0.6l7.9,20.7h-0.7L20.4,182.7z M20.2,182.2l-5.1-13.3l-5.1,13.3
		C10.1,182.2,20.2,182.2,20.2,182.2z"/>
</g>
<g class="st0">
	<path class="st1" d="M54.9,177.5c-1.2,1-2.8,1.4-5.1,1.4H45v9.6h-0.6v-21.3h5.4c2.3,0,4.1,0.5,5.2,1.5c1.1,1,1.7,2.5,1.7,4.3
		C56.6,175.1,56,176.6,54.9,177.5z M54.5,177c1-0.9,1.5-2.2,1.5-3.9c0-1.7-0.5-3.1-1.5-3.9s-2.5-1.3-4.8-1.3H45v10.5h4.8
		C52,178.4,53.6,177.9,54.5,177L54.5,177z"/>
</g>
<g class="st0">
	<path class="st1" d="M89.8,182.7H79.2l-2.2,5.9h-0.7l7.9-20.7h0.6l7.9,20.7H92L89.8,182.7z M89.6,182.2l-5.1-13.3l-5.1,13.3
		C79.5,182.2,89.6,182.2,89.6,182.2z"/>
</g>
<g class="st0">
	<path class="st1" d="M125.4,188.6l-5.7-9.3h-5.4v9.3h-0.6v-21.3h5.3c2.3,0,4.1,0.5,5.2,1.6c1.1,1.1,1.7,2.5,1.7,4.4
		c0,1.7-0.5,3.1-1.4,4.1c-1,1-2.3,1.6-4.2,1.9l5.8,9.4C126.2,188.6,125.4,188.6,125.4,188.6z M119.1,178.7c2.1,0,3.6-0.5,4.7-1.5
		c1-1,1.6-2.3,1.6-4c0-3.6-2.1-5.4-6.3-5.4h-4.7v10.9L119.1,178.7L119.1,178.7z"/>
</g>
<g class="st0">
	<path class="st1" d="M158.6,167.3v0.5h-6.2v20.8h-0.6v-20.8h-6.2v-0.5H158.6L158.6,167.3z"/>
</g>
<g class="st0">
	<path class="st1" d="M191.1,182.7h-10.5l-2.2,5.9h-0.7l7.9-20.7h0.6l7.9,20.7h-0.7L191.1,182.7L191.1,182.7z M190.9,182.2
		l-5.1-13.3l-5.1,13.3H190.9z"/>
</g>
<g class="st0">
	<path class="st1" d="M234.1,167.9v20.7h-0.6v-19.2l-8.6,19.2h-0.6l-8.6-19.2v19.2h-0.6v-20.7h0.6l8.9,19.9l8.9-19.9H234.1z"/>
</g>
<g class="st0">
	<path class="st1" d="M257.4,167.8v9.9h8.9v0.6h-8.9v9.9h9.8v0.5h-10.4v-21.3h10.4v0.5H257.4z"/>
</g>
<g class="st0">
	<path class="st1" d="M303.4,188.6h-0.6l-13.2-20.2v20.2h-0.6v-21.3h0.6l13.2,20.2v-20.2h0.6V188.6z"/>
</g>
<g class="st0">
	<path class="st1" d="M337.1,167.3v0.5h-6.2v20.8h-0.6v-20.8h-6.2v-0.5H337.1L337.1,167.3z"/>
</g>
<g class="st0">
	<path class="st1" d="M370.1,167.3l-6.6,12.4v8.9h-0.6v-8.9l-6.7-12.4h0.7l6.2,11.7l6.2-11.7H370.1z"/>
</g>
<g id="g26">
	<g id="g28">
		<g>
			<defs>
				<path id="SVGID_1_" d="M50.2,123.1l0,2.1c0,0.4-0.3,0.7-0.7,0.7H46c-0.4,0-0.7-0.3-0.7-0.7l0-2.1c0-14,0-29.2-4.9-39.8
					c-3.8-2.6-19.4-11.8-37.7-4.6c-0.4,0.2-0.8-0.1-0.9-0.4C1.5,77.2,1.2,76,1,74.8c-0.1-0.3,0.1-0.7,0.4-0.8
					c12.7-4.9,24.2-2.7,32,0.3c-1.8-1.4-3.9-2.5-6.1-3.2C10.6,65.7,3.7,56.4,0.9,48.9c0-0.1-0.1-0.3,0-0.4c0.5-2.3,1.1-4.6,1.9-6.9
					C3,41,4,41.1,4.1,41.8C4.7,47.3,8,57.6,23.4,64.4c-1.3-8.9,0-16.6,1.2-23.5c1.7-9.7,3-17.5-2.6-26.4c-0.2-0.3-0.1-0.7,0.1-0.9
					c0.9-0.8,1.9-1.5,2.8-2.2c0.3-0.2,0.8-0.1,1,0.2c6.9,10.5,5.2,20,3.5,30.1c-1.3,7.6-2.7,15.4-0.8,24.7c0,0,0,0,0.1,0
					C50.3,73.6,50.2,99.9,50.2,123.1z M121.9,75c-0.2,1.2-0.6,2.3-0.9,3.5c-0.1,0.4-0.5,0.6-0.9,0.4c-19.6-7.3-36.7,1.9-40.8,4.5
					c-1.7,7.8-1.7,16.1-1.7,21.9v20c0,0.4-0.3,0.7-0.7,0.7h-3.6c-0.4,0-0.7-0.3-0.7-0.7v0v-20c0-9.7,0-25.7,7.2-36.8
					c-4.1-4.7-7.9-12.1-7.7-20.4c0.2-7,3.2-13.4,8.9-18.5c8.7-7.9,10.1-15,9.6-21.5c0-0.5,0.5-0.9,1-0.6c1.2,0.7,2.5,1.4,3.7,2.2
					c0.2,0.1,0.3,0.3,0.3,0.6c0,6.7-2.2,14.7-11.2,23c-4.7,4.3-7.2,9.3-7.3,15C77,54.8,79.8,60.6,83,64.6c1.8-1.9,4-3.6,6.5-4.9
					c6.2-3.2,12.1-4.6,17.2-5.7c7.7-1.8,11.9-2.9,13.5-7.5c0.2-0.6,1.1-0.6,1.3,0c0.4,1.7,0.8,3.4,1.1,5.2c0,0.2,0,0.4-0.2,0.6
					c-3.4,3.9-8.9,5.2-14.6,6.4c-4.9,1.1-10.4,2.4-16,5.3c-5.2,2.7-8.5,7.3-10.5,12.7c7.9-3.8,23-8.9,40.2-2.6
					C121.8,74.3,122,74.6,121.9,75z M77.4,1.7c0.5,0.1,0.7,0.8,0.3,1.1c-1.7,1.8-4.6,6.4-5.6,18.3C71.2,32.9,65.7,42,61.3,49.4
					c-3.2,5.3-6,9.9-6.2,14.1c4.5,7.3,8.9,16.7,8.9,32v29.9c0,0.4-0.3,0.7-0.7,0.7h-3.6c-0.4,0-0.7-0.3-0.7-0.7V95.4
					c0-16.9-5.8-25.8-10.8-33.6C42.3,52.6,36.7,44,43.5,26c5.1-13.5,6.4-21.2,6.7-24.9c0-0.3,0.3-0.6,0.5-0.6
					c1.2-0.2,2.4-0.4,3.6-0.5c0.4-0.1,0.8,0.3,0.8,0.7c-0.2,4.1-1.6,12.4-7.1,27c-5.6,14.8-2,21.5,3.4,30c1.3-3.5,3.4-7,5.7-10.8
					c4.4-7.3,9.3-15.5,10.2-26.1C68.1,10.2,70.4,4.3,72.7,1c0.2-0.2,0.4-0.3,0.7-0.3C74.7,1,76.1,1.3,77.4,1.7L77.4,1.7z M85.9,57.6
					c5.3-1.2,8.7-6.4,7.5-11.7l-0.2-1c-0.1-0.3-0.4-0.6-0.7-0.5c0,0,0,0,0,0l-1.1,0.2c-5.3,1.2-8.7,6.4-7.5,11.7l0.2,1
					c0.1,0.3,0.4,0.6,0.8,0.5L85.9,57.6z M83.7,84.4L82.8,85c-0.3,0.2-0.4,0.6-0.2,0.9l0.5,0.9c2.7,4.7,8.7,6.3,13.4,3.6l0.9-0.5
					c0.3-0.2,0.4-0.6,0.2-0.9L97.1,88C94.4,83.3,88.4,81.7,83.7,84.4z M66.7,65.7l-1-0.4c-0.3-0.1-0.7,0-0.8,0.4c0,0,0,0,0,0l-0.4,1
					c-1.9,5.1,0.8,10.7,5.9,12.6c0,0,0,0,0,0l1,0.4c0.3,0.1,0.7-0.1,0.8-0.4l0.4-1C74.4,73.2,71.8,67.6,66.7,65.7z M70.5,54.7
					l0.2-1.1c0-0.3-0.2-0.7-0.5-0.7c0,0,0,0,0,0l-1.1-0.2c-5.4-0.8-10.3,3-11.1,8.3l-0.2,1.1c0,0.3,0.2,0.7,0.5,0.7l1.1,0.2
					C64.8,63.8,69.7,60.1,70.5,54.7z M62.1,27.2l0.2-1.1c0-0.3-0.2-0.7-0.5-0.7l-1.1-0.2c-5.4-0.8-10.4,2.9-11.2,8.3l-0.2,1.1
					c0,0.3,0.2,0.7,0.5,0.7l1.1,0.2C56.3,36.3,61.3,32.6,62.1,27.2z M37.8,50l-1,0.4c-5.1,1.9-7.7,7.5-5.8,12.6l0.4,1
					c0.1,0.3,0.5,0.5,0.8,0.4l1-0.4c5.1-1.9,7.7-7.5,5.8-12.6l-0.4-1C38.5,50.1,38.2,49.9,37.8,50C37.9,50,37.9,50,37.8,50z
					 M23.5,38.6c0.8-5.4-3-10.4-8.4-11.1l-1.1-0.1c-0.3-0.1-0.7,0.2-0.7,0.5c0,0,0,0,0,0l-0.2,1.1c-0.8,5.4,3,10.4,8.4,11.1l1.1,0.2
					c0.4,0,0.7-0.2,0.7-0.5C23.3,39.7,23.5,38.6,23.5,38.6z M16.4,56c3.8-3.8,3.8-10.1,0-13.9l-0.8-0.8c-0.2-0.2-0.6-0.3-0.9,0
					c0,0,0,0,0,0L14,42.1c-3.8,3.8-3.9,10,0,13.9c0,0,0,0,0,0l0.8,0.8c0.2,0.2,0.6,0.2,0.9,0L16.4,56z M35.9,9.9l-1-0.4
					c-0.3-0.1-0.7,0-0.8,0.4c0,0,0,0,0,0l-0.4,1c-1.8,5.1,0.8,10.8,6,12.6l1,0.4c0.3,0.1,0.7,0,0.8-0.4l0.4-1
					C43.7,17.4,41.1,11.8,35.9,9.9z M64.5,14.1l1,0.3c0.3,0.1,0.7-0.1,0.8-0.5l0.3-1c1.3-5.3-1.9-10.6-7.1-12l-1-0.3
					c-0.3-0.1-0.7,0.1-0.8,0.5c0,0,0,0,0,0l-0.3,1C56,7.5,59.2,12.8,64.5,14.1z M119.2,62.2c-4.4-3.2-10.6-2.2-13.7,2.2l-0.6,0.9
					c-0.2,0.3-0.1,0.7,0.1,0.9l0.9,0.6c4.4,3.2,10.6,2.2,13.7-2.2l0.6-0.9c0.2-0.3,0.1-0.7-0.1-0.9
					C120.1,62.9,119.2,62.2,119.2,62.2z M23.2,88L22.7,89c-0.2,0.3-0.1,0.7,0.2,0.9l0.9,0.5c4.7,2.7,10.7,1.1,13.4-3.6l0.5-0.9
					c0.2-0.3,0.1-0.7-0.2-0.9l-0.9-0.5C32,81.7,26,83.3,23.2,88z M104.6,78.9l-1.1,0.2c-0.3,0.1-0.6,0.4-0.5,0.7l0.2,1.1
					c1,5.3,6.1,8.9,11.4,7.9l1.1-0.2c0.3-0.1,0.6-0.4,0.5-0.7l-0.2-1.1C115,81.5,109.9,78,104.6,78.9z M7.5,86.9l-0.2,1.1
					c-0.1,0.3,0.2,0.7,0.5,0.7l1.1,0.2c5.4,1,10.5-2.6,11.4-7.9l0.2-1.1c0.1-0.3-0.2-0.7-0.5-0.7l-1-0.2C13.6,78,8.5,81.5,7.5,86.9z
					 M85.3,35.8l-0.8,0.7c-0.3,0.2-0.3,0.6,0,0.9l0.7,0.8c3.7,4,9.9,4.2,13.9,0.5l0.8-0.7c0.2-0.2,0.3-0.6,0-0.9l-0.7-0.8
					C95.5,32.3,89.2,32.1,85.3,35.8z M107.1,22.9l0.4-1c0.1-0.3,0-0.7-0.4-0.8c0,0,0,0,0,0l-1-0.4c-5.1-1.8-10.8,0.8-12.6,6l-0.4,1
					c-0.1,0.3,0.1,0.7,0.4,0.8l1,0.4C99.7,30.6,105.3,28,107.1,22.9z M87.4,11V9.9c0-0.4-0.3-0.6-0.6-0.6h-1.1
					c-5.4,0-9.8,4.4-9.8,9.8v1.1c0,0.4,0.3,0.6,0.6,0.6h1.1C83,20.8,87.4,16.4,87.4,11z M104.4,48.7l0.2,1.1
					c0.1,0.3,0.4,0.6,0.7,0.5l1.1-0.2c5.4-0.8,9.1-5.8,8.3-11.1l-0.2-1.1c-0.1-0.3-0.4-0.6-0.7-0.5l-1.1,0.2
					C107.4,38.3,103.6,43.3,104.4,48.7"/>
			</defs>
			<clipPath id="SVGID_2_">
				<use xlink:href="#SVGID_1_"  style="overflow:visible;"/>
			</clipPath>
			<g id="g30" class="st3">
				<path id="path36" class="st4" d="M136.8,112.1l-5,1.2L102.8-11.6l5-1.2L136.8,112.1L136.8,112.1z"/>
				<path id="path38" class="st5" d="M132,113.2l-0.6,0.2L102.3-11.5l0.6-0.1L132,113.2z"/>
				<path id="path40" class="st6" d="M131.6,113.3l-0.6,0.2L101.9-11.4l0.6-0.1L131.6,113.3z"/>
				<path id="path42" class="st7" d="M131.2,113.4l-0.6,0.2L101.5-11.3l0.6-0.1L131.2,113.4z"/>
				<path id="path44" class="st7" d="M130.8,113.5l-0.6,0.2L101.1-11.2l0.6-0.1L130.8,113.5z"/>
				<path id="path46" class="st8" d="M130.3,113.6l-0.6,0.2l-29-124.8l0.6-0.1L130.3,113.6z"/>
				<path id="path48" class="st9" d="M129.9,113.7l-0.6,0.2L100.2-11l0.6-0.1L129.9,113.7z"/>
				<path id="path50" class="st10" d="M129.5,113.8l-0.6,0.2L99.8-10.9l0.6-0.1C100.4-11.1,129.5,113.8,129.5,113.8z"/>
				<path id="path52" class="st11" d="M129.1,113.9l-0.6,0.2l-29-124.8L100-11L129.1,113.9z"/>
				<path id="path54" class="st12" d="M128.6,114l-0.6,0.2L98.9-10.7l0.6-0.1L128.6,114z"/>
				<path id="path56" class="st13" d="M128.2,114.1l-0.6,0.2l-29-124.8l0.6-0.1L128.2,114.1L128.2,114.1z"/>
				<path id="path58" class="st14" d="M127.8,114.2l-0.6,0.2L98.1-10.5l0.6-0.1C98.7-10.7,127.8,114.2,127.8,114.2z"/>
				<path id="path60" class="st15" d="M127.4,114.3l-0.6,0.2L97.7-10.4l0.6-0.1C98.3-10.6,127.4,114.3,127.4,114.3z"/>
				<path id="path62" class="st16" d="M126.9,114.4l-0.6,0.2L97.2-10.3l0.6-0.1L126.9,114.4z"/>
				<path id="path64" class="st17" d="M126.5,114.5l-0.6,0.2l-29-124.8l0.6-0.1C97.5-10.4,126.5,114.5,126.5,114.5z"/>
				<path id="path66" class="st18" d="M126.1,114.6l-0.6,0.2l-29-124.8l0.6-0.1C97.1-10.3,126.1,114.6,126.1,114.6z"/>
				<path id="path68" class="st19" d="M125.7,114.7l-0.6,0.2L96-10l0.6-0.1C96.6-10.2,125.7,114.7,125.7,114.7z"/>
				<path id="path70" class="st20" d="M125.2,114.8l-0.6,0.2L95.6-9.9l0.6-0.1L125.2,114.8z"/>
				<path id="path72" class="st21" d="M124.8,114.9l-0.6,0.2L95.1-9.8l0.6-0.1C95.8-10,124.8,114.9,124.8,114.9z"/>
				<path id="path74" class="st21" d="M124.4,115l-0.6,0.2L94.7-9.7l0.6-0.1C95.3-9.9,124.4,115,124.4,115z"/>
				<path id="path76" class="st22" d="M124,115.1l-0.6,0.2L94.3-9.6l0.6-0.1C94.9-9.8,124,115.1,124,115.1z"/>
				<path id="path78" class="st23" d="M123.6,115.2l-0.6,0.2L93.9-9.5l0.6-0.1L123.6,115.2z"/>
				<path id="path80" class="st24" d="M123.1,115.3l-0.6,0.2L93.4-9.4l0.6-0.1L123.1,115.3z"/>
				<path id="path82" class="st25" d="M122.7,115.4l-0.6,0.2L93-9.3l0.6-0.1C93.7-9.5,122.7,115.4,122.7,115.4z"/>
				<path id="path84" class="st26" d="M122.3,115.5l-0.6,0.2L92.6-9.2l0.6-0.1C93.2-9.4,122.3,115.5,122.3,115.5z"/>
				<path id="path86" class="st27" d="M121.8,115.6l-0.6,0.2L92.2-9.1l0.6-0.1C92.8-9.3,121.9,115.6,121.8,115.6z"/>
				<path id="path88" class="st27" d="M121.4,115.7l-0.6,0.2L91.7-9l0.6-0.1C92.4-9.2,121.4,115.7,121.4,115.7z"/>
				<path id="path90" class="st28" d="M121,115.8l-0.6,0.2L91.3-8.9L92-9.1L121,115.8z"/>
				<path id="path92" class="st28" d="M120.6,115.9l-0.6,0.2L90.9-8.8L91.5-9C91.5-9,120.6,115.9,120.6,115.9z"/>
				<path id="path94" class="st29" d="M120.2,116l-0.6,0.2L90.5-8.7l0.6-0.1L120.2,116z"/>
				<path id="path96" class="st30" d="M119.7,116.1l-0.6,0.2L90-8.6l0.6-0.1C90.7-8.8,119.7,116.1,119.7,116.1z"/>
				<path id="path98" class="st31" d="M119.3,116.2l-0.6,0.2L89.6-8.5l0.6-0.1C90.3-8.7,119.3,116.2,119.3,116.2z"/>
				<path id="path100" class="st32" d="M118.9,116.3l-0.6,0.2L89.2-8.4l0.6-0.1C89.8-8.6,118.9,116.3,118.9,116.3z"/>
				<path id="path102" class="st33" d="M118.5,116.4l-0.6,0.2L88.8-8.3l0.6-0.1C89.4-8.5,118.5,116.4,118.5,116.4z"/>
				<path id="path104" class="st34" d="M118,116.5l-0.6,0.2L88.3-8.2L89-8.4L118,116.5z"/>
				<path id="path106" class="st35" d="M117.6,116.6l-0.6,0.2L87.9-8.1l0.6-0.1L117.6,116.6z"/>
				<path id="path108" class="st36" d="M117.2,116.7l-0.6,0.2L87.5-8l0.6-0.1C88.1-8.2,117.2,116.7,117.2,116.7z"/>
				<path id="path110" class="st37" d="M116.8,116.8l-0.6,0.2L87.1-7.9l0.6-0.1L116.8,116.8z"/>
				<path id="path112" class="st38" d="M116.3,116.8l-0.6,0.2L86.7-7.8L87.3-8L116.3,116.8z"/>
				<path id="path114" class="st39" d="M115.9,116.9l-0.6,0.2L86.2-7.7l0.6-0.2L115.9,116.9z"/>
				<path id="path116" class="st40" d="M115.5,117.1l-0.6,0.2L85.8-7.6l0.6-0.2C86.4-7.8,115.5,117,115.5,117.1z"/>
				<path id="path118" class="st41" d="M115.1,117.2l-0.6,0.2L85.4-7.5L86-7.7C86-7.7,115.1,117.1,115.1,117.2z"/>
				<path id="path120" class="st42" d="M114.6,117.2l-0.6,0.2L84.9-7.4l0.6-0.2L114.6,117.2z"/>
				<path id="path122" class="st43" d="M114.2,117.3l-0.6,0.2L84.5-7.3l0.6-0.2L114.2,117.3z"/>
				<path id="path124" class="st44" d="M113.8,117.4l-0.6,0.2L84.1-7.3l0.6-0.2L113.8,117.4z"/>
				<path id="path126" class="st45" d="M113.4,117.5l-0.6,0.2L83.7-7.2l0.6-0.2C84.3-7.3,113.4,117.5,113.4,117.5z"/>
				<path id="path128" class="st46" d="M112.9,117.6l-0.6,0.2L83.3-7.1l0.6-0.2L112.9,117.6z"/>
				<path id="path130" class="st47" d="M112.5,117.7l-0.6,0.2L82.8-7l0.6-0.2C83.5-7.1,112.5,117.7,112.5,117.7z"/>
				<path id="path132" class="st47" d="M112.1,117.8l-0.6,0.2L82.4-6.9L83.1-7C83.1-7,112.1,117.8,112.1,117.8z"/>
				<path id="path134" class="st48" d="M111.7,117.9l-0.6,0.2L82-6.8l0.6-0.2C82.6-6.9,111.7,117.9,111.7,117.9z"/>
				<path id="path136" class="st48" d="M111.2,118l-0.6,0.2L81.6-6.7l0.6-0.2C82.2-6.8,111.2,118,111.2,118z"/>
				<path id="path138" class="st49" d="M110.8,118.1l-0.6,0.2L81.1-6.6l0.6-0.2L110.8,118.1z"/>
				<path id="path140" class="st50" d="M110.4,118.2l-0.6,0.2L80.7-6.5l0.6-0.2C81.3-6.6,110.4,118.2,110.4,118.2z"/>
				<path id="path142" class="st51" d="M110,118.3l-0.6,0.2L80.3-6.4l0.6-0.2C80.9-6.5,110,118.3,110,118.3z"/>
				<path id="path144" class="st52" d="M109.6,118.4l-0.6,0.2L79.9-6.3l0.6-0.2C80.5-6.4,109.6,118.4,109.6,118.4z"/>
				<path id="path146" class="st53" d="M109.1,118.5l-0.6,0.2L79.4-6.2l0.6-0.2C80.1-6.3,109.1,118.5,109.1,118.5z"/>
				<path id="path148" class="st54" d="M108.7,118.6l-0.6,0.2L79-6.1l0.6-0.2L108.7,118.6z"/>
				<path id="path150" class="st54" d="M108.3,118.7l-0.6,0.2L78.6-6l0.6-0.2C79.2-6.1,108.3,118.7,108.3,118.7z"/>
				<path id="path152" class="st55" d="M107.9,118.8l-0.6,0.2L78.2-5.9L78.8-6C78.8-6,107.9,118.8,107.9,118.8z"/>
				<path id="path154" class="st56" d="M107.4,118.9l-0.6,0.2L77.7-5.8l0.6-0.2C78.4-5.9,107.4,118.9,107.4,118.9z"/>
				<path id="path156" class="st57" d="M107,119l-0.6,0.2L77.3-5.7L78-5.8C78-5.8,107,119,107,119z"/>
				<path id="path158" class="st58" d="M106.6,119.1l-0.6,0.2L76.9-5.6l0.6-0.2C77.5-5.7,106.6,119.1,106.6,119.1z"/>
				<path id="path160" class="st59" d="M106.2,119.2l-0.6,0.2L76.5-5.5l0.6-0.2C77.1-5.6,106.2,119.2,106.2,119.2z"/>
				<path id="path162" class="st60" d="M105.7,119.3l-0.6,0.2L76.1-5.4l0.6-0.2C76.7-5.5,105.7,119.3,105.7,119.3z"/>
				<path id="path164" class="st61" d="M105.3,119.4l-0.6,0.2L75.6-5.3l0.6-0.2L105.3,119.4z"/>
				<path id="path166" class="st62" d="M104.9,119.5l-0.6,0.2L75.2-5.2l0.6-0.2L104.9,119.5z"/>
				<path id="path168" class="st63" d="M104.5,119.6l-0.6,0.2L74.8-5.1l0.6-0.2C75.4-5.2,104.5,119.6,104.5,119.6z"/>
				<path id="path170" class="st64" d="M104,119.7l-0.6,0.2L74.3-5L75-5.1C75-5.1,104,119.7,104,119.7z"/>
				<path id="path172" class="st65" d="M103.6,119.8L103,120L73.9-4.9L74.6-5C74.6-5,103.6,119.8,103.6,119.8z"/>
				<path id="path174" class="st66" d="M103.2,119.9l-0.6,0.2L73.5-4.8l0.6-0.2C74.1-4.9,103.2,119.9,103.2,119.9z"/>
				<path id="path176" class="st67" d="M102.8,120l-0.6,0.2L73.1-4.7l0.6-0.2C73.7-4.8,102.8,120,102.8,120z"/>
				<path id="path178" class="st68" d="M102.3,120.1l-0.6,0.2L72.7-4.6l0.6-0.2C73.3-4.7,102.3,120.1,102.3,120.1z"/>
				<path id="path180" class="st69" d="M101.9,120.2l-0.6,0.2L72.2-4.5l0.6-0.2L101.9,120.2z"/>
				<path id="path182" class="st70" d="M101.5,120.3l-0.6,0.2L71.8-4.4l0.6-0.2L101.5,120.3z"/>
				<path id="path184" class="st71" d="M101.1,120.4l-0.6,0.2L71.4-4.3L72-4.4C72-4.4,101.1,120.4,101.1,120.4z"/>
				<path id="path186" class="st72" d="M100.7,120.5l-0.6,0.2L71-4.2l0.6-0.2C71.6-4.3,100.6,120.5,100.7,120.5z"/>
				<path id="path188" class="st73" d="M100.2,120.6l-0.6,0.2L70.5-4.1l0.6-0.2L100.2,120.6z"/>
				<path id="path190" class="st74" d="M99.8,120.7l-0.6,0.2L70.1-4l0.6-0.2L99.8,120.7z"/>
				<path id="path192" class="st75" d="M99.4,120.8l-0.6,0.2L69.7-3.9L70.3-4L99.4,120.8z"/>
				<path id="path194" class="st76" d="M98.9,120.9l-0.6,0.2L69.3-3.8l0.6-0.2L98.9,120.9z"/>
				<path id="path196" class="st77" d="M98.5,121l-0.6,0.2L68.8-3.7l0.6-0.2L98.5,121z"/>
				<path id="path198" class="st78" d="M98.1,121.1l-0.6,0.2L68.4-3.6l0.6-0.2L98.1,121.1z"/>
				<path id="path200" class="st79" d="M97.7,121.2l-0.6,0.2L68-3.5l0.6-0.2L97.7,121.2z"/>
				<path id="path202" class="st80" d="M97.2,121.3l-0.6,0.2L67.6-3.4l0.6-0.2C68.2-3.6,97.2,121.3,97.2,121.3z"/>
				<path id="path204" class="st81" d="M96.8,121.4l-0.6,0.2L67.1-3.3l0.6-0.2L96.8,121.4z"/>
				<path id="path206" class="st82" d="M96.4,121.5l-0.6,0.2L66.7-3.2l0.6-0.2L96.4,121.5z"/>
				<path id="path208" class="st83" d="M96,121.6l-0.6,0.2L66.3-3.1l0.6-0.2C66.9-3.3,96,121.6,96,121.6z"/>
				<path id="path210" class="st84" d="M95.6,121.7l-0.6,0.2L65.9-3l0.6-0.2C66.5-3.2,95.6,121.7,95.6,121.7z"/>
				<path id="path212" class="st85" d="M95.1,121.8l-0.6,0.2L65.4-2.9l0.6-0.2C66.1-3.1,95.1,121.8,95.1,121.8z"/>
				<path id="path214" class="st86" d="M94.7,121.9l-0.6,0.2L65-2.8L65.7-3C65.7-3,94.7,121.9,94.7,121.9z"/>
				<path id="path216" class="st87" d="M94.3,122l-0.6,0.2L64.6-2.7l0.6-0.2L94.3,122z"/>
				<path id="path218" class="st88" d="M93.9,122.1l-0.6,0.2L64.2-2.6l0.6-0.2C64.8-2.8,93.9,122.1,93.9,122.1z"/>
				<path id="path220" class="st89" d="M93.4,122.2l-0.6,0.2L63.8-2.5l0.6-0.2C64.4-2.7,93.4,122.2,93.4,122.2z"/>
				<path id="path222" class="st90" d="M93,122.3l-0.6,0.2L63.3-2.4L64-2.6L93,122.3z"/>
				<path id="path224" class="st91" d="M92.6,122.4l-0.6,0.2L62.9-2.3l0.6-0.2L92.6,122.4z"/>
				<path id="path226" class="st92" d="M92.2,122.5l-0.6,0.2L62.5-2.2l0.6-0.2C63.1-2.4,92.2,122.5,92.2,122.5z"/>
				<path id="path228" class="st93" d="M91.7,122.6l-0.6,0.2L62-2.1l0.6-0.2C62.7-2.3,91.7,122.6,91.7,122.6z"/>
				<path id="path230" class="st94" d="M91.3,122.7l-0.6,0.2L61.6-2l0.6-0.2C62.3-2.2,91.3,122.7,91.3,122.7z"/>
				<path id="path232" class="st95" d="M90.9,122.8l-0.6,0.2L61.2-1.9l0.6-0.1L90.9,122.8z"/>
				<path id="path234" class="st96" d="M90.5,122.9l-0.6,0.2L60.8-1.8L61.4-2C61.4-2,90.5,122.9,90.5,122.9z"/>
				<path id="path236" class="st97" d="M90,123l-0.6,0.2L60.4-1.7L61-1.9C61-1.9,90,123,90,123z"/>
				<path id="path238" class="st98" d="M89.6,123.1l-0.6,0.2L59.9-1.6l0.6-0.1C60.6-1.8,89.6,123.1,89.6,123.1z"/>
				<path id="path240" class="st99" d="M89.2,123.2l-0.6,0.2L59.5-1.5l0.6-0.1L89.2,123.2z"/>
				<path id="path242" class="st100" d="M88.8,123.3l-0.6,0.2L59.1-1.4l0.6-0.1C59.7-1.6,88.8,123.3,88.8,123.3z"/>
				<path id="path244" class="st101" d="M88.3,123.4l-0.6,0.2L58.7-1.3l0.6-0.1C59.3-1.5,88.3,123.4,88.3,123.4z"/>
				<path id="path246" class="st102" d="M87.9,123.5l-0.6,0.2L58.2-1.2l0.6-0.1C58.9-1.4,87.9,123.5,87.9,123.5z"/>
				<path id="path248" class="st103" d="M87.5,123.6l-0.6,0.2L57.8-1.1l0.6-0.1L87.5,123.6z"/>
				<path id="path250" class="st104" d="M87.1,123.7l-0.6,0.2L57.4-1L58-1.2C58-1.2,87.1,123.7,87.1,123.7z"/>
				<path id="path252" class="st105" d="M86.7,123.8l-0.6,0.2L57-0.9l0.6-0.2C57.6-1.1,86.6,123.8,86.7,123.8z"/>
				<path id="path254" class="st106" d="M86.2,123.9l-0.6,0.2L56.5-0.8L57.2-1C57.2-1,86.2,123.9,86.2,123.9z"/>
				<path id="path256" class="st107" d="M85.8,124l-0.6,0.2L56.1-0.7l0.6-0.1L85.8,124z"/>
				<path id="path258" class="st108" d="M85.4,124.1l-0.6,0.2L55.7-0.6l0.6-0.1L85.4,124.1z"/>
				<path id="path260" class="st109" d="M84.9,124.2l-0.6,0.2L55.3-0.5l0.6-0.1C55.9-0.7,84.9,124.2,84.9,124.2z"/>
				<path id="path262" class="st110" d="M84.5,124.3l-0.6,0.2L54.8-0.4l0.6-0.2L84.5,124.3z"/>
				<path id="path264" class="st111" d="M84.1,124.3l-0.6,0.2L54.4-0.3l0.6-0.2L84.1,124.3z"/>
				<path id="path266" class="st112" d="M83.7,124.4l-0.6,0.2L54-0.2l0.6-0.2L83.7,124.4z"/>
				<path id="path268" class="st113" d="M83.3,124.6l-0.6,0.2L53.6-0.1l0.6-0.2C54.2-0.3,83.3,124.5,83.3,124.6z"/>
				<path id="path270" class="st114" d="M82.8,124.7l-0.6,0.2L53.2,0l0.6-0.1C53.8-0.2,82.8,124.6,82.8,124.7z"/>
				<path id="path272" class="st115" d="M82.4,124.8l-0.6,0.2L52.7,0.1l0.6-0.2L82.4,124.8z"/>
				<path id="path274" class="st116" d="M82,124.8l-0.6,0.2L52.3,0.2L52.9,0L82,124.8z"/>
				<path id="path276" class="st117" d="M81.6,124.9l-0.6,0.2L51.9,0.3l0.6-0.1L81.6,124.9z"/>
				<path id="path278" class="st118" d="M81.1,125l-0.6,0.2L51.5,0.3l0.6-0.1C52.1,0.2,81.1,125,81.1,125z"/>
				<path id="path280" class="st119" d="M80.7,125.1l-0.6,0.2L51,0.4l0.6-0.2L80.7,125.1z"/>
				<path id="path282" class="st120" d="M80.3,125.2l-0.6,0.2L50.6,0.5l0.6-0.2C51.2,0.4,80.3,125.2,80.3,125.2z"/>
				<path id="path284" class="st121" d="M79.9,125.3l-0.6,0.2L50.2,0.6l0.6-0.2C50.8,0.5,79.9,125.3,79.9,125.3z"/>
				<path id="path286" class="st122" d="M79.4,125.4l-0.6,0.2L49.8,0.7l0.6-0.1C50.4,0.6,79.4,125.4,79.4,125.4z"/>
				<path id="path288" class="st123" d="M79,125.5l-0.6,0.2L49.3,0.8L50,0.7C50,0.7,79,125.5,79,125.5z"/>
				<path id="path290" class="st124" d="M78.6,125.6l-0.6,0.2L48.9,0.9l0.6-0.2L78.6,125.6z"/>
				<path id="path292" class="st124" d="M78.2,125.7l-0.6,0.2L48.5,1l0.6-0.1L78.2,125.7z"/>
				<path id="path294" class="st125" d="M77.7,125.8l-0.6,0.2L48.1,1.1L48.7,1C48.7,1,77.7,125.8,77.7,125.8z"/>
				<path id="path296" class="st126" d="M77.3,125.9l-0.6,0.2L47.6,1.2l0.6-0.1C48.3,1.1,77.3,125.9,77.3,125.9z"/>
				<path id="path298" class="st127" d="M76.9,126l-0.6,0.2L47.2,1.3l0.6-0.1L76.9,126z"/>
				<path id="path300" class="st128" d="M76.5,126.1l-0.6,0.2L46.8,1.4l0.6-0.1L76.5,126.1z"/>
				<path id="path302" class="st129" d="M76.1,126.2l-0.6,0.2L46.4,1.5L47,1.4C47,1.4,76.1,126.2,76.1,126.2z"/>
				<path id="path304" class="st129" d="M75.6,126.3l-0.6,0.2L45.9,1.6l0.6-0.1C46.6,1.5,75.6,126.3,75.6,126.3z"/>
				<path id="path306" class="st130" d="M75.2,126.4l-0.6,0.2L45.5,1.7l0.6-0.1L75.2,126.4z"/>
				<path id="path308" class="st131" d="M74.8,126.5l-0.6,0.2L45.1,1.8l0.6-0.1L74.8,126.5z"/>
				<path id="path310" class="st132" d="M74.3,126.6l-0.6,0.2L44.7,1.9l0.6-0.1C45.3,1.8,74.3,126.6,74.3,126.6z"/>
				<path id="path312" class="st133" d="M73.9,126.7l-0.6,0.2L44.2,2l0.6-0.1C44.9,1.9,73.9,126.7,73.9,126.7z"/>
				<path id="path314" class="st133" d="M73.5,126.8l-0.6,0.2L43.8,2.1L44.5,2L73.5,126.8z"/>
				<path id="path316" class="st134" d="M73.1,126.9l-0.6,0.2L43.4,2.2L44,2.1L73.1,126.9z"/>
				<path id="path318" class="st135" d="M72.7,127l-0.6,0.2L43,2.3l0.6-0.2L72.7,127z"/>
				<path id="path320" class="st136" d="M72.2,127.1l-0.6,0.2L42.5,2.4l0.6-0.2C43.2,2.3,72.2,127.1,72.2,127.1z"/>
				<path id="path322" class="st137" d="M71.8,127.2l-0.6,0.2L42.1,2.5l0.6-0.2C42.8,2.4,71.8,127.2,71.8,127.2z"/>
				<path id="path324" class="st138" d="M71.4,127.3l-0.6,0.2L41.7,2.6l0.6-0.2C42.3,2.5,71.4,127.3,71.4,127.3z"/>
				<path id="path326" class="st139" d="M71,127.4l-0.6,0.2L41.3,2.7l0.6-0.2C41.9,2.6,71,127.4,71,127.4z"/>
				<path id="path328" class="st140" d="M70.5,127.5l-0.6,0.2L40.8,2.8l0.6-0.2C41.5,2.7,70.5,127.5,70.5,127.5z"/>
				<path id="path330" class="st141" d="M70.1,127.6l-0.6,0.2L40.4,2.9l0.6-0.2C41.1,2.8,70.1,127.6,70.1,127.6z"/>
				<path id="path332" class="st142" d="M69.7,127.7l-0.6,0.2L40,3l0.6-0.2L69.7,127.7z"/>
				<path id="path334" class="st143" d="M69.3,127.8l-0.6,0.2L39.6,3.1L40.2,3L69.3,127.8z"/>
				<path id="path336" class="st143" d="M68.8,127.9l-0.6,0.1L39.2,3.2l0.6-0.2C39.8,3.1,68.8,127.9,68.8,127.9z"/>
				<path id="path338" class="st144" d="M68.4,128l-0.6,0.1L38.7,3.3l0.6-0.2L68.4,128z"/>
				<path id="path340" class="st145" d="M68,128.1l-0.6,0.1L38.3,3.4l0.6-0.2L68,128.1z"/>
				<path id="path342" class="st145" d="M67.6,128.2l-0.6,0.1L37.9,3.5l0.6-0.2L67.6,128.2z"/>
				<path id="path344" class="st146" d="M67.1,128.3l-0.6,0.1L37.5,3.6l0.6-0.2L67.1,128.3z"/>
				<path id="path346" class="st146" d="M66.7,128.4l-0.6,0.1L37,3.7l0.6-0.2L66.7,128.4z"/>
				<path id="path348" class="st147" d="M66.3,128.5l-0.6,0.1L36.6,3.8l0.6-0.2L66.3,128.5z"/>
				<path id="path350" class="st147" d="M65.9,128.6l-0.6,0.1L36.2,3.9l0.6-0.2L65.9,128.6z"/>
				<path id="path352" class="st148" d="M65.4,128.7l-0.6,0.1L35.8,4l0.6-0.1L65.4,128.7z"/>
				<path id="path354" class="st149" d="M65,128.8l-0.6,0.1L35.3,4.1L36,3.9L65,128.8z"/>
				<path id="path356" class="st149" d="M64.6,128.9L64,129L34.9,4.2L35.5,4L64.6,128.9z"/>
				<path id="path358" class="st150" d="M64.2,129l-0.6,0.1L34.5,4.3l0.6-0.2L64.2,129L64.2,129z"/>
				<path id="path360" class="st151" d="M63.8,129.1l-0.6,0.1L34.1,4.4l0.6-0.2L63.8,129.1z"/>
				<path id="path362" class="st152" d="M63.3,129.2l-0.6,0.1L33.6,4.5l0.6-0.2C34.3,4.3,63.3,129.2,63.3,129.2z"/>
				<path id="path364" class="st152" d="M62.9,129.3l-0.6,0.1L33.2,4.6l0.6-0.2L62.9,129.3z"/>
				<path id="path366" class="st153" d="M62.5,129.4l-0.6,0.1L32.8,4.7l0.6-0.2L62.5,129.4z"/>
				<path id="path368" class="st154" d="M62,129.5l-0.6,0.1L32.4,4.8L33,4.6L62,129.5L62,129.5z"/>
				<path id="path370" class="st154" d="M61.6,129.6l-0.6,0.1L31.9,4.9l0.6-0.2L61.6,129.6z"/>
				<path id="path372" class="st155" d="M61.2,129.7l-0.6,0.1L31.5,5l0.6-0.2L61.2,129.7z"/>
				<path id="path374" class="st155" d="M60.8,129.8l-0.6,0.1L31.1,5.1l0.6-0.2L60.8,129.8z"/>
				<path id="path376" class="st156" d="M60.4,129.9l-0.6,0.1L30.7,5.2L31.3,5L60.4,129.9L60.4,129.9z"/>
				<path id="path378" class="st156" d="M59.9,130l-0.6,0.1L30.2,5.3l0.6-0.2L59.9,130z"/>
				<path id="path380" class="st157" d="M59.5,130.1l-0.6,0.1L29.8,5.4l0.6-0.2L59.5,130.1z"/>
				<path id="path382" class="st158" d="M59.1,130.2l-0.6,0.1L29.4,5.5L30,5.3L59.1,130.2z"/>
				<path id="path384" class="st158" d="M58.7,130.3l-0.6,0.1L29,5.6l0.6-0.2C29.6,5.4,58.7,130.3,58.7,130.3z"/>
				<path id="path386" class="st159" d="M58.2,130.4l-0.6,0.1L28.5,5.7l0.6-0.2C29.2,5.5,58.2,130.4,58.2,130.4z"/>
				<path id="path388" class="st159" d="M57.8,130.5l-0.6,0.1L28.1,5.8l0.6-0.2C28.8,5.6,57.8,130.5,57.8,130.5z"/>
				<path id="path390" class="st160" d="M57.4,130.6l-0.6,0.1L27.7,5.9l0.6-0.2L57.4,130.6L57.4,130.6z"/>
				<path id="path392" class="st160" d="M57,130.7l-0.6,0.1L27.3,6l0.6-0.2L57,130.7z"/>
				<path id="path394" class="st161" d="M56.5,130.8l-0.6,0.1L26.9,6.1l0.6-0.2L56.5,130.8L56.5,130.8z"/>
				<path id="path396" class="st162" d="M56.1,130.9l-0.6,0.1L26.4,6.2L27.1,6L56.1,130.9z"/>
				<path id="path398" class="st163" d="M55.7,131l-0.6,0.1L26,6.3l0.6-0.2L55.7,131z"/>
				<path id="path400" class="st164" d="M55.3,131.1l-0.6,0.1L25.6,6.4l0.6-0.2L55.3,131.1L55.3,131.1z"/>
				<path id="path402" class="st164" d="M54.8,131.2l-0.6,0.1L25.2,6.5l0.6-0.2L54.8,131.2z"/>
				<path id="path404" class="st165" d="M54.4,131.3l-0.6,0.1L24.7,6.6l0.6-0.2L54.4,131.3z"/>
				<path id="path406" class="st166" d="M54,131.4l-0.6,0.1L24.3,6.7l0.6-0.2L54,131.4z"/>
				<path id="path408" class="st167" d="M53.6,131.5l-0.6,0.1L23.9,6.8l0.6-0.2L53.6,131.5L53.6,131.5z"/>
				<path id="path410" class="st168" d="M53.2,131.6l-0.6,0.1L23.5,6.9l0.6-0.2C24.1,6.7,53.1,131.6,53.2,131.6z"/>
				<path id="path412" class="st169" d="M52.7,131.7l-0.6,0.1L23,7l0.6-0.2L52.7,131.7z"/>
				<path id="path414" class="st170" d="M52.3,131.8l-0.6,0.1L22.6,7.1l0.6-0.2L52.3,131.8z"/>
				<path id="path416" class="st171" d="M51.9,131.9l-0.6,0.1L22.2,7.2L22.8,7L51.9,131.9L51.9,131.9z"/>
				<path id="path418" class="st172" d="M51.5,131.9l-0.6,0.1L21.8,7.3l0.6-0.2C22.4,7.1,51.4,131.9,51.5,131.9z"/>
				<path id="path420" class="st172" d="M51,132.1l-0.6,0.1L21.3,7.4L22,7.2L51,132.1z"/>
				<path id="path422" class="st173" d="M50.6,132.1l-0.6,0.1L20.9,7.5l0.6-0.2L50.6,132.1z"/>
				<path id="path424" class="st174" d="M50.2,132.2l-0.6,0.1L20.5,7.6l0.6-0.2L50.2,132.2z"/>
				<path id="path426" class="st174" d="M49.8,132.4l-0.6,0.1L20.1,7.7l0.6-0.2L49.8,132.4L49.8,132.4z"/>
				<path id="path428" class="st175" d="M49.3,132.4l-0.6,0.1L19.6,7.8l0.6-0.2C20.3,7.6,49.3,132.4,49.3,132.4z"/>
				<path id="path430" class="st175" d="M48.9,132.6l-0.6,0.1L19.2,7.8l0.6-0.2C19.9,7.7,48.9,132.6,48.9,132.6z"/>
				<path id="path432" class="st176" d="M48.5,132.6l-0.6,0.1L18.8,7.9l0.6-0.2L48.5,132.6z"/>
				<path id="path434" class="st177" d="M48.1,132.7l-0.6,0.1L18.4,8L19,7.9L48.1,132.7L48.1,132.7z"/>
				<path id="path436" class="st177" d="M47.6,132.8L47,133L18,8.1L18.6,8C18.6,8,47.6,132.8,47.6,132.8z"/>
				<path id="path438" class="st178" d="M47.2,132.9l-0.6,0.1L17.5,8.2l0.6-0.1L47.2,132.9z"/>
				<path id="path440" class="st179" d="M46.8,133l-0.6,0.1L17.1,8.3l0.6-0.1L46.8,133z"/>
				<path id="path442" class="st179" d="M46.4,133.1l-0.6,0.1L16.7,8.4l0.6-0.1L46.4,133.1z"/>
				<path id="path444" class="st179" d="M45.9,133.2l-0.6,0.1L16.2,8.5l0.6-0.1L45.9,133.2L45.9,133.2z"/>
				<path id="path446" class="st180" d="M45.5,133.3l-0.6,0.1L15.8,8.6l0.6-0.1C16.5,8.5,45.5,133.3,45.5,133.3z"/>
				<path id="path448" class="st180" d="M45.1,133.4l-0.6,0.1L15.4,8.7L16,8.6C16,8.6,45.1,133.4,45.1,133.4z"/>
				<path id="path450" class="st180" d="M44.7,133.5l-0.6,0.1L15,8.8l0.6-0.1L44.7,133.5z"/>
				<path id="path452" class="st180" d="M44.2,133.6l-0.6,0.1L14.6,8.9l0.6-0.1L44.2,133.6L44.2,133.6z"/>
				<path id="path454" class="st180" d="M43.8,133.7l-0.6,0.1L14.1,9l0.6-0.1L43.8,133.7z"/>
				<path id="path456" class="st180" d="M43.4,133.8l-0.6,0.1L13.7,9.1L14.4,9L43.4,133.8z"/>
				<path id="path458" class="st181" d="M43,133.9l-0.6,0.1L13.3,9.2l0.6-0.1L43,133.9z"/>
				<path id="path460" class="st182" d="M42.5,134l-0.6,0.1L12.9,9.3l0.6-0.1L42.5,134z"/>
				<path id="path462" class="st182" d="M42.1,134.1l-0.6,0.1L12.4,9.4l0.6-0.1L42.1,134.1z"/>
				<path id="path464" class="st182" d="M41.7,134.2l-0.6,0.1L12,9.5l0.6-0.1L41.7,134.2z"/>
				<path id="path466" class="st183" d="M41.3,134.3l-0.6,0.1L11.6,9.6l0.6-0.1L41.3,134.3L41.3,134.3z"/>
				<path id="path468" class="st183" d="M40.8,134.4l-0.6,0.1L11.2,9.7l0.6-0.1L40.8,134.4z"/>
				<path id="path470" class="st184" d="M40.4,134.5l-0.6,0.1L10.7,9.8l0.6-0.1L40.4,134.5L40.4,134.5z"/>
				<path id="path472" class="st184" d="M40,134.6l-0.6,0.1L10.3,9.9L11,9.8L40,134.6z"/>
				<path id="path474" class="st184" d="M39.6,134.7l-0.6,0.1L9.9,10l0.6-0.1L39.6,134.7z"/>
				<path id="path476" class="st184" d="M39.2,134.8l-0.6,0.1L9.5,10.1l0.6-0.1L39.2,134.8L39.2,134.8z"/>
				<path id="path478" class="st185" d="M38.7,134.9l-0.6,0.1L9,10.2l0.6-0.1L38.7,134.9z"/>
				<path id="path480" class="st185" d="M38.3,135l-0.6,0.1L8.6,10.3l0.6-0.1L38.3,135z"/>
				<path id="path482" class="st186" d="M37.9,135.1l-0.6,0.1L8.2,10.4l0.6-0.1C8.8,10.3,37.9,135.1,37.9,135.1z"/>
				<path id="path484" class="st186" d="M37.5,135.2l-0.6,0.1L7.8,10.5l0.6-0.1L37.5,135.2L37.5,135.2z"/>
				<path id="path486" class="st186" d="M37,135.3l-0.6,0.1L7.3,10.6L8,10.5L37,135.3z"/>
				<path id="path488" class="st186" d="M36.6,135.4l-0.6,0.1L6.9,10.7l0.6-0.1L36.6,135.4z"/>
				<path id="path490" class="st186" d="M36.2,135.5l-0.6,0.1L6.5,10.8l0.6-0.1L36.2,135.5z"/>
				<path id="path492" class="st186" d="M35.8,135.6l-0.6,0.1L6.1,10.9l0.6-0.1L35.8,135.6z"/>
				<path id="path494" class="st187" d="M35.3,135.7l-0.6,0.1L5.7,11l0.6-0.1L35.3,135.7z"/>
				<path id="path496" class="st187" d="M34.9,135.8l-0.6,0.1L5.2,11.1L5.9,11L34.9,135.8z"/>
				<path id="path498" class="st188" d="M34.5,135.9l-0.6,0.1L4.8,11.2l0.6-0.1L34.5,135.9z"/>
				<path id="path500" class="st188" d="M34.1,136l-0.6,0.1L4.4,11.3L5,11.2L34.1,136z"/>
				<path id="path502" class="st188" d="M33.6,136.1l-0.6,0.1L4,11.4l0.6-0.1L33.6,136.1z"/>
				<path id="path504" class="st188" d="M33.2,136.2l-0.6,0.1L3.5,11.5l0.6-0.1L33.2,136.2z"/>
				<path id="path506" class="st189" d="M32.8,136.3l-0.6,0.1L3.1,11.6l0.6-0.1L32.8,136.3z"/>
				<path id="path508" class="st189" d="M32.4,136.4l-0.6,0.1L2.7,11.7l0.6-0.1L32.4,136.4z"/>
				<path id="path510" class="st189" d="M31.9,136.5l-0.6,0.1L2.2,11.8l0.6-0.1L31.9,136.5L31.9,136.5z"/>
				<path id="path512" class="st189" d="M31.5,136.6l-0.6,0.1L1.8,11.9l0.6-0.1C2.5,11.7,31.5,136.6,31.5,136.6z"/>
				<path id="path514" class="st189" d="M31.1,136.7l-0.6,0.1L1.4,12L2,11.8L31.1,136.7z"/>
				<path id="path516" class="st189" d="M30.7,136.8l-0.6,0.1L1,12.1l0.6-0.1L30.7,136.8z"/>
				<path id="path518" class="st190" d="M30.2,136.9l-0.6,0.1L0.6,12.2L1.2,12L30.2,136.9z"/>
				<path id="path520" class="st191" d="M29.8,137l-0.6,0.1L0.1,12.3l0.6-0.1L29.8,137L29.8,137z"/>
				<path id="path522" class="st191" d="M29.4,137.1l-0.6,0.1L-0.3,12.4l0.6-0.1L29.4,137.1z"/>
				<path id="path524" class="st191" d="M29,137.2l-0.6,0.1l-29-124.8l0.6-0.1C-0.1,12.3,29,137.2,29,137.2z"/>
				<path id="path526" class="st191" d="M28.5,137.3l-0.6,0.1l-29-124.8l0.6-0.1L28.5,137.3z"/>
				<path id="path528" class="st191" d="M28.1,137.4l-0.6,0.1l-29-124.8l0.6-0.1L28.1,137.4L28.1,137.4z"/>
				<path id="path530" class="st192" d="M27.7,137.5l-0.6,0.1L-2,12.8l0.6-0.1L27.7,137.5z"/>
				<path id="path532" class="st192" d="M27.3,137.6l-0.6,0.1L-2.4,12.9l0.6-0.1C-1.8,12.7,27.3,137.6,27.3,137.6z"/>
				<path id="path534" class="st192" d="M26.9,137.7l-0.6,0.1L-2.8,13l0.6-0.1L26.9,137.7z"/>
				<path id="path536" class="st192" d="M26.4,137.8l-0.6,0.1L-3.3,13.1l0.6-0.1L26.4,137.8z"/>
				<path id="path538" class="st193" d="M26,137.9l-0.6,0.1l-29-124.8L-3,13L26,137.9z"/>
				<path id="path540" class="st193" d="M25.6,138l-0.6,0.1L-4.1,13.3l0.6-0.1C-3.5,13.1,25.6,138,25.6,138z"/>
				<path id="path542" class="st194" d="M25.2,138.1l-0.6,0.1L-4.5,13.4l0.6-0.1L25.2,138.1L25.2,138.1z"/>
				<path id="path544" class="st194" d="M24.7,138.2l-0.6,0.1L-5,13.5l0.6-0.1L24.7,138.2z"/>
				<path id="path546" class="st194" d="M24.3,138.3l-8.2,1.9L-12.9,15.3l8.2-1.9L24.3,138.3z"/>
			</g>
		</g>
	</g>
</g>
</svg>
