<svg version="1.1" id="svg2" xmlns="http://www.w3.org/2000/svg" xmlns:xlink="http://www.w3.org/1999/xlink" x="0" y="0" viewBox="0 0 377.94 205.05" style="enable-background:new 0 0 377.94 205.05" xml:space="preserve"><style>.st0{enable-background:new}.st1{fill:#2b2a29}.st21,.st27,.st28,.st47,.st7{fill-rule:evenodd;clip-rule:evenodd;fill:#cdde95}.st21,.st27,.st28,.st47{fill:#c4d98d}.st27,.st28,.st47{fill:#c0d789}.st28,.st47{fill:#bfd688}.st47{fill:#b3d07d}.st124,.st129,.st133,.st143,.st48,.st54{fill-rule:evenodd;clip-rule:evenodd;fill:#b2cf7c}.st124,.st129,.st133,.st143,.st54{fill:#aecd78}.st124,.st129,.st133,.st143{fill:#57923c}.st129,.st133,.st143{fill:#558d3a}.st133,.st143{fill:#538938}.st143{fill:#4f8034}.st145,.st146,.st147,.st149,.st152,.st154{fill-rule:evenodd;clip-rule:evenodd;fill:#4e7e33}.st146,.st147,.st149,.st152,.st154{fill:#4d7d32}.st147,.st149,.st152,.st154{fill:#4d7c32}.st149,.st152,.st154{fill:#4c7a31}.st152,.st154{fill:#4b7830}.st154{fill:#4a762f}.st155,.st156,.st158,.st159,.st160,.st164{fill-rule:evenodd;clip-rule:evenodd;fill:#4a752f}.st156,.st158,.st159,.st160,.st164{fill:#49742e}.st158,.st159,.st160,.st164{fill:#48722d}.st159,.st160,.st164{fill:#48712d}.st160,.st164{fill:#47702c}.st164{fill:#466d2b}.st172,.st174,.st175,.st177,.st179,.st180{fill-rule:evenodd;clip-rule:evenodd;fill:#436829}.st174,.st175,.st177,.st179,.st180{fill:#426629}.st175,.st177,.st179,.st180{fill:#416529}.st177,.st179,.st180{fill:#406328}.st179,.st180{fill:#3f6228}.st180{fill:#3f6128}.st182,.st183,.st184,.st185,.st186,.st187{fill-rule:evenodd;clip-rule:evenodd;fill:#3e6028}.st183,.st184,.st185,.st186,.st187{fill:#3e6027}.st184,.st185,.st186,.st187{fill:#3e5f27}.st185,.st186,.st187{fill:#3d5f27}.st186,.st187{fill:#3d5e27}.st187{fill:#3d5d27}.st188,.st189,.st191,.st192,.st193,.st194{fill-rule:evenodd;clip-rule:evenodd;fill:#3c5d27}.st189,.st191,.st192,.st193,.st194{fill:#3c5c27}.st191,.st192,.st193,.st194{fill:#3b5b26}.st192,.st193,.st194{fill:#3b5a26}.st193,.st194{fill:#3a5a26}.st194{fill:#3a5926}</style><g class="st0"><path class="st1" d="M187.1 35.94v1.77c0 .56-.17 1.09-.5 1.58l-16.23 27.42h16.39v3.91h-22.2v-1.87c0-.26.04-.51.13-.74.09-.23.2-.45.34-.66l16.2-27.5h-15.78v-3.91h21.65z"/></g><g class="st0"><path class="st1" d="M197.59 70.62h-4.8V35.94h4.8v34.68z"/></g><g class="st0"><path class="st1" d="M226.09 35.94v3.91h-15.44v11.38h12.43V55h-12.43v11.72h15.47l-.03 3.91h-20.27V35.94h20.27z"/></g><g class="st0"><path class="st1" d="M236.82 66.58h13.38v4.04h-18.18V35.94h4.8v30.64z"/></g><g class="st0"><path class="st1" d="M283.84 53.28c0 2.6-.38 4.99-1.15 7.15s-1.85 4.03-3.25 5.6c-1.4 1.57-3.08 2.78-5.04 3.66-1.96.87-4.14 1.31-6.53 1.31-2.38 0-4.55-.44-6.52-1.31-1.97-.87-3.66-2.09-5.07-3.66-1.41-1.57-2.5-3.43-3.27-5.6s-1.16-4.55-1.16-7.15c0-2.59.39-4.97 1.16-7.14s1.86-4.05 3.27-5.62c1.41-1.58 3.1-2.8 5.07-3.67 1.97-.87 4.14-1.31 6.52-1.31 2.39 0 4.57.44 6.53 1.31 1.96.87 3.64 2.09 5.04 3.67 1.4 1.57 2.48 3.45 3.25 5.62s1.15 4.55 1.15 7.14zm-4.91 0c0-2.11-.26-4.01-.78-5.69-.52-1.68-1.26-3.1-2.22-4.28a9.614 9.614 0 0 0-3.48-2.69c-1.36-.62-2.89-.94-4.58-.94s-3.22.31-4.58.94a9.767 9.767 0 0 0-3.5 2.69c-.97 1.17-1.71 2.6-2.23 4.28-.52 1.68-.78 3.58-.78 5.69s.26 4.01.78 5.69c.52 1.68 1.26 3.11 2.23 4.28a9.655 9.655 0 0 0 3.5 2.68c1.36.62 2.89.92 4.58.92s3.22-.31 4.58-.92a9.587 9.587 0 0 0 3.48-2.68c.96-1.17 1.7-2.59 2.22-4.28.52-1.69.78-3.58.78-5.69z"/></g><g class="st0"><path class="st1" d="M293.07 36.08c.21.1.45.32.71.67l18.84 25.94c-.04-.42-.07-.84-.09-1.25s-.04-.8-.04-1.15V35.94h4.22v34.68h-2.43c-.37 0-.68-.06-.94-.18s-.51-.34-.75-.66l-18.84-25.86c.04.41.06.79.08 1.16.02.37.03.72.03 1.06v24.49h-4.22V35.94h2.51c.4 0 .71.04.92.14z"/></g><g class="st0"><path class="st1" d="M336.22 56.76v13.86h-4.8v-13.8l-10.77-20.88h4.22c.4 0 .73.1.99.3.25.2.47.47.65.81l5.94 13.38c.3.54.56 1.06.79 1.54.23.48.43.96.61 1.44.18-.47.37-.95.59-1.44.22-.48.48-.99.78-1.52l5.89-13.41c.14-.26.34-.51.61-.75.26-.24.6-.36 1-.36H347l-10.78 20.83z"/></g><g class="st0"><path class="st1" d="M162.11 125.56h-4.83v-15.73h-16.63v15.73h-4.83V90.88h4.83v15.44h16.63V90.88h4.83v34.68z"/></g><g class="st0"><path class="st1" d="M199.69 108.22c0 2.6-.38 4.99-1.15 7.15s-1.85 4.03-3.25 5.6c-1.4 1.57-3.08 2.78-5.04 3.66-1.96.87-4.14 1.31-6.53 1.31-2.38 0-4.55-.44-6.52-1.31-1.97-.87-3.66-2.09-5.07-3.66-1.41-1.57-2.5-3.43-3.27-5.6s-1.16-4.55-1.16-7.15c0-2.59.39-4.97 1.16-7.14s1.86-4.05 3.27-5.62c1.41-1.58 3.1-2.8 5.07-3.67s4.14-1.31 6.52-1.31c2.39 0 4.57.44 6.53 1.31s3.64 2.09 5.04 3.67c1.4 1.57 2.48 3.45 3.25 5.62s1.15 4.55 1.15 7.14zm-4.91 0c0-2.11-.26-4.01-.78-5.69-.52-1.68-1.26-3.1-2.22-4.28a9.614 9.614 0 0 0-3.48-2.69c-1.36-.62-2.89-.94-4.58-.94s-3.22.31-4.58.94a9.767 9.767 0 0 0-3.5 2.69c-.97 1.17-1.71 2.6-2.23 4.28-.52 1.68-.78 3.58-.78 5.69s.26 4.01.78 5.69c.52 1.68 1.26 3.11 2.23 4.28a9.655 9.655 0 0 0 3.5 2.68c1.36.62 2.89.92 4.58.92s3.22-.31 4.58-.92a9.587 9.587 0 0 0 3.48-2.68c.96-1.17 1.7-2.59 2.22-4.28.52-1.69.78-3.58.78-5.69z"/></g><g class="st0"><path class="st1" d="M210.27 111.15v14.41h-4.8V90.88h9.5c2.11 0 3.94.22 5.48.67 1.54.45 2.81 1.09 3.8 1.93s1.73 1.85 2.2 3.04c.47 1.19.71 2.52.71 4 0 1.21-.18 2.35-.54 3.4a9.18 9.18 0 0 1-1.56 2.85c-.68.84-1.51 1.57-2.49 2.18-.99.61-2.1 1.07-3.35 1.38a5.885 5.885 0 0 1 1.6 1.51l9.32 13.72h-4.28c-.83 0-1.47-.33-1.93-.98l-8.21-12.35c-.26-.39-.55-.66-.86-.83s-.77-.25-1.39-.25h-3.2zm0-3.51h4.51c1.27 0 2.38-.16 3.34-.49s1.76-.79 2.42-1.39c.65-.6 1.14-1.32 1.46-2.15.33-.83.49-1.75.49-2.76 0-4.13-2.51-6.2-7.52-6.2h-4.7v12.99z"/></g><g class="st0"><path class="st1" d="M245.72 111.7v13.86h-4.8v-13.8l-10.77-20.88h4.22c.4 0 .73.1.99.3.25.2.47.47.65.8l5.94 13.38c.3.54.56 1.06.79 1.54.23.48.43.96.61 1.44.18-.47.37-.95.59-1.44.22-.48.48-.99.78-1.52l5.89-13.41c.14-.26.34-.51.61-.75.26-.24.6-.36 1-.36h4.28l-10.78 20.84z"/></g><g class="st0"><path class="st1" d="M280.25 90.88v1.77c0 .56-.17 1.09-.5 1.58l-16.23 27.42h16.39v3.91h-22.2v-1.87c0-.26.04-.51.13-.74.09-.23.2-.45.34-.66l16.2-27.5H258.6v-3.91h21.65z"/></g><g class="st0"><path class="st1" d="M314.79 108.22c0 2.6-.38 4.99-1.15 7.15s-1.85 4.03-3.25 5.6c-1.4 1.57-3.08 2.78-5.04 3.66-1.96.87-4.14 1.31-6.53 1.31-2.38 0-4.55-.44-6.52-1.31-1.97-.87-3.66-2.09-5.07-3.66-1.41-1.57-2.5-3.43-3.27-5.6s-1.16-4.55-1.16-7.15c0-2.59.39-4.97 1.16-7.14s1.86-4.05 3.27-5.62c1.41-1.58 3.1-2.8 5.07-3.67s4.14-1.31 6.52-1.31c2.39 0 4.57.44 6.53 1.31s3.64 2.09 5.04 3.67c1.4 1.57 2.48 3.45 3.25 5.62s1.15 4.55 1.15 7.14zm-4.91 0c0-2.11-.26-4.01-.78-5.69-.52-1.68-1.26-3.1-2.22-4.28a9.614 9.614 0 0 0-3.48-2.69c-1.36-.62-2.89-.94-4.58-.94s-3.22.31-4.58.94a9.767 9.767 0 0 0-3.5 2.69c-.97 1.17-1.71 2.6-2.23 4.28-.52 1.68-.78 3.58-.78 5.69s.26 4.01.78 5.69c.52 1.68 1.26 3.11 2.23 4.28a9.655 9.655 0 0 0 3.5 2.68c1.36.62 2.89.92 4.58.92s3.22-.31 4.58-.92a9.587 9.587 0 0 0 3.48-2.68c.96-1.17 1.7-2.59 2.22-4.28.52-1.69.78-3.58.78-5.69z"/></g><g class="st0"><path class="st1" d="M324.02 91.02c.21.1.45.32.71.67l18.84 25.94c-.04-.42-.07-.84-.09-1.25s-.04-.8-.04-1.15V90.88h4.22v34.68h-2.43c-.37 0-.68-.06-.94-.18s-.51-.34-.75-.66L324.7 98.86c.04.41.06.79.08 1.16.02.37.03.72.03 1.06v24.49h-4.22V90.88h2.51c.4 0 .71.05.92.14z"/></g><g class="st0"><path class="st1" d="M377.31 90.88v4.01H367.2v30.67h-4.83V94.89h-10.13v-4.01h25.07z"/></g><path id="path20" d="m0 146.37 192.3-1.64 184.77 1.51-183.9 2.05L0 146.37z" style="fill-rule:evenodd;clip-rule:evenodd;fill:#4d9335"/><g class="st0"><path class="st1" d="M20.44 182.72H9.9l-2.24 5.88h-.7l7.91-20.69h.61l7.88 20.69h-.7l-2.22-5.88zm-.21-.55-5.06-13.3-5.06 13.3h10.12z"/></g><g class="st0"><path class="st1" d="M54.89 177.54c-1.15.97-2.85 1.45-5.09 1.45h-4.79v9.6h-.61v-21.33h5.39c2.34 0 4.06.51 5.17 1.54 1.1 1.03 1.65 2.47 1.65 4.33.01 1.98-.57 3.44-1.72 4.41zm-.35-.55c.98-.91 1.47-2.19 1.47-3.85 0-1.74-.48-3.05-1.45-3.94s-2.55-1.33-4.76-1.33h-4.79v10.48h4.79c2.18.01 3.76-.45 4.74-1.36z"/></g><g class="st0"><path class="st1" d="M89.79 182.72H79.25L77 188.6h-.7l7.91-20.69h.61l7.88 20.69H92l-2.21-5.88zm-.21-.55-5.06-13.3-5.06 13.3h10.12z"/></g><g class="st0"><path class="st1" d="m125.41 188.6-5.7-9.3h-5.37v9.3h-.61v-21.33h5.33c2.34 0 4.08.54 5.23 1.61 1.14 1.07 1.71 2.53 1.71 4.39 0 1.72-.49 3.09-1.45 4.12-.97 1.03-2.35 1.65-4.15 1.85l5.76 9.36h-.75zm-6.27-9.88c2.08 0 3.64-.5 4.68-1.48 1.04-.99 1.56-2.31 1.56-3.97 0-3.59-2.1-5.39-6.3-5.39h-4.73v10.85h4.79z"/></g><g class="st0"><path class="st1" d="M158.59 167.27v.54h-6.21v20.78h-.61v-20.78h-6.21v-.54h13.03z"/></g><g class="st0"><path class="st1" d="M191.15 182.72h-10.54l-2.24 5.88h-.7l7.91-20.69h.61l7.88 20.69h-.7l-2.22-5.88zm-.21-.55-5.06-13.3-5.06 13.3h10.12z"/></g><g class="st0"><path class="st1" d="M234.11 167.87v20.72h-.61v-19.24l-8.57 19.24h-.61l-8.6-19.24v19.24h-.61v-20.72h.61l8.91 19.93 8.88-19.93h.6z"/></g><g class="st0"><path class="st1" d="M257.44 167.81v9.85h8.91v.55h-8.91v9.85h9.82v.54h-10.42v-21.33h10.42v.54h-9.82z"/></g><g class="st0"><path class="st1" d="M303.36 188.6h-.61l-13.24-20.21v20.21h-.61v-21.3h.61l13.24 20.18V167.3h.61v21.3z"/></g><g class="st0"><path class="st1" d="M337.14 167.27v.54h-6.21v20.78h-.61v-20.78h-6.21v-.54h13.03z"/></g><g class="st0"><path class="st1" d="m370.11 167.27-6.6 12.39v8.94h-.61v-8.94l-6.66-12.39h.73l6.21 11.72 6.21-11.72h.72z"/></g><g id="g26"><g id="g28"><defs><path id="SVGID_1_" d="m50.2 123.14-.01 2.13c0 .36-.3.65-.66.65h-3.58c-.36 0-.66-.3-.66-.66l.01-2.13c.02-13.98.04-29.17-4.87-39.75-3.75-2.55-19.36-11.84-37.71-4.61-.37.15-.8-.05-.9-.44-.33-1.16-.62-2.33-.87-3.51-.07-.33.11-.67.43-.79 12.7-4.86 24.16-2.72 32.04.29a20.806 20.806 0 0 0-6.11-3.17C10.57 65.67 3.7 56.36.94 48.9a.654.654 0 0 1-.03-.39c.5-2.34 1.13-4.63 1.9-6.87.23-.68 1.22-.57 1.3.14.62 5.51 3.93 15.83 19.31 22.64-1.28-8.94.05-16.63 1.25-23.52 1.68-9.7 3.05-17.54-2.59-26.36-.18-.29-.13-.68.13-.89.93-.76 1.87-1.49 2.84-2.19.32-.23.76-.14.98.18 6.86 10.53 5.2 20.05 3.47 30.09-1.33 7.58-2.67 15.4-.75 24.74.02.01.05.02.08.02 21.44 7.07 21.41 33.41 21.37 56.65zm71.72-48.17c-.25 1.17-.55 2.34-.87 3.5-.11.38-.53.58-.9.44-19.58-7.33-36.71 1.95-40.84 4.5-1.68 7.8-1.66 16.07-1.65 21.89v19.97c0 .36-.3.66-.66.66h-3.58a.66.66 0 0 1-.66-.66V105.3c-.02-9.7-.04-25.69 7.16-36.75-4.06-4.71-7.88-12.11-7.68-20.4.16-7 3.23-13.4 8.87-18.53 8.7-7.9 10.05-14.99 9.57-21.5-.04-.53.53-.9.99-.64 1.25.7 2.47 1.44 3.66 2.22.19.13.31.34.31.57-.01 6.74-2.16 14.72-11.23 22.97-4.69 4.26-7.15 9.32-7.28 15.02-.16 6.51 2.69 12.38 5.87 16.36 1.83-1.92 3.99-3.61 6.54-4.93 6.19-3.23 12.05-4.57 17.22-5.74 7.73-1.77 11.87-2.92 13.5-7.45.23-.63 1.14-.61 1.3.04.42 1.69.78 3.42 1.06 5.16.03.2-.03.41-.16.57-3.41 3.9-8.91 5.15-14.6 6.44-4.89 1.12-10.42 2.38-16.05 5.31-5.18 2.7-8.46 7.34-10.54 12.73 7.89-3.85 23.02-8.88 40.23-2.56.3.11.5.45.42.78zM77.37 1.67c.49.13.67.75.31 1.11-1.73 1.76-4.62 6.42-5.55 18.33-.92 11.75-6.41 20.91-10.83 28.27-3.19 5.31-5.97 9.94-6.23 14.06 4.45 7.31 8.86 16.72 8.86 31.96v29.86c0 .36-.3.66-.66.66h-3.58c-.37 0-.66-.29-.66-.66V95.41c0-16.95-5.75-25.81-10.81-33.62-5.94-9.16-11.55-17.81-4.76-35.77 5.11-13.52 6.43-21.16 6.73-24.87.03-.3.26-.55.55-.61 1.2-.21 2.42-.39 3.64-.53.41-.05.77.29.75.7-.21 4.14-1.56 12.36-7.1 27.04-5.6 14.82-2.05 21.53 3.37 29.96 1.28-3.46 3.4-6.98 5.7-10.83 4.37-7.28 9.32-15.53 10.15-26.13.83-10.58 3.19-16.45 5.49-19.71.16-.21.42-.31.68-.26 1.32.24 2.65.55 3.95.89zm8.56 55.91c5.31-1.16 8.68-6.4 7.52-11.71l-.23-1.05a.623.623 0 0 0-.75-.48l-1.05.23c-5.31 1.16-8.67 6.4-7.52 11.71l.23 1.05c.08.34.41.56.75.48l1.05-.23zm-2.25 26.86-.93.53c-.3.17-.4.56-.23.86l.54.93c2.71 4.71 8.73 6.32 13.44 3.6l.92-.53c.31-.17.41-.56.23-.86l-.53-.93c-2.73-4.7-8.74-6.31-13.44-3.6zM66.7 65.72l-1.01-.36a.63.63 0 0 0-.81.38l-.36 1.01a9.833 9.833 0 0 0 5.91 12.6l1 .36c.33.12.69-.05.81-.38l.36-1.01c1.85-5.11-.8-10.75-5.9-12.6zm3.79-11.02.16-1.06a.63.63 0 0 0-.54-.71l-1.06-.15c-5.38-.77-10.35 2.97-11.12 8.35l-.15 1.06c-.05.34.19.66.54.71l1.06.15c5.37.77 10.35-2.97 11.11-8.35zm-8.35-27.51.16-1.06a.64.64 0 0 0-.53-.72l-1.06-.16c-5.37-.8-10.37 2.92-11.16 8.29l-.16 1.06c-.05.34.19.67.53.72l1.06.16c5.37.8 10.37-2.91 11.16-8.29zM37.85 50.03l-1 .37c-5.1 1.88-7.7 7.54-5.82 12.64l.37 1c.12.33.48.49.81.37l1-.37c5.1-1.88 7.7-7.54 5.82-12.64l-.37-1a.614.614 0 0 0-.81-.37zM23.48 38.61c.77-5.38-2.97-10.36-8.35-11.13l-1.06-.15a.619.619 0 0 0-.71.53l-.16 1.06c-.76 5.38 2.98 10.36 8.36 11.13l1.06.15c.35.05.67-.19.71-.54l.15-1.05zm-7.09 17.41c3.84-3.84 3.84-10.07 0-13.91l-.76-.76a.622.622 0 0 0-.89 0l-.76.76a9.82 9.82 0 0 0 0 13.91l.76.76c.25.25.64.25.89 0l.76-.76zm19.55-46.1-1-.36a.63.63 0 0 0-.81.38l-.36 1.01c-1.83 5.12.84 10.75 5.95 12.58l1.01.36c.33.12.69-.05.81-.38l.36-1.01c1.82-5.12-.84-10.75-5.96-12.58zm28.55 4.23 1.04.26c.34.09.68-.12.77-.46l.26-1.04C67.89 7.64 64.7 2.29 59.44.96L58.4.7a.632.632 0 0 0-.77.46l-.27 1.04c-1.33 5.27 1.86 10.62 7.13 11.95zm54.71 48.09c-4.41-3.17-10.56-2.17-13.73 2.24l-.63.87c-.2.28-.13.68.14.88l.87.62c4.41 3.17 10.56 2.17 13.73-2.24l.62-.87c.2-.28.14-.68-.14-.88l-.86-.62zm-95.95 25.8-.54.93c-.18.3-.07.69.23.86l.93.53c4.71 2.72 10.72 1.1 13.44-3.6l.53-.93c.18-.3.07-.69-.23-.86l-.92-.53c-4.71-2.71-10.72-1.1-13.44 3.6zm81.31-9.1-1.05.19c-.34.06-.57.39-.51.73l.19 1.05c.97 5.35 6.08 8.9 11.43 7.94l1.05-.19c.34-.06.57-.39.51-.73l-.19-1.05c-.97-5.34-6.09-8.9-11.43-7.94zM7.54 86.88l-.19 1.05c-.06.34.17.67.51.73l1.05.19c5.35.96 10.46-2.59 11.42-7.94l.19-1.05a.633.633 0 0 0-.51-.73l-1.05-.19c-5.34-.96-10.46 2.6-11.42 7.94zm77.73-51.06-.78.73c-.26.24-.27.64-.04.89l.73.78c3.7 3.98 9.93 4.21 13.9.51l.79-.73c.25-.24.27-.64.03-.89l-.73-.78c-3.7-3.98-9.93-4.21-13.9-.51zm21.86-12.96.36-1.01a.63.63 0 0 0-.38-.81l-1.01-.36c-5.12-1.83-10.75.84-12.58 5.95l-.36 1.01c-.12.33.05.69.38.81l1.01.36c5.12 1.83 10.75-.83 12.58-5.95zM87.42 11.02V9.95c0-.35-.28-.63-.63-.63h-1.07c-5.43 0-9.84 4.4-9.84 9.84v1.07c0 .35.28.63.63.63h1.07c5.44-.01 9.84-4.41 9.84-9.84zm17 37.7.16 1.06c.05.34.37.58.71.53l1.06-.15c5.38-.77 9.11-5.76 8.34-11.14l-.16-1.06a.63.63 0 0 0-.71-.53l-1.06.15c-5.38.77-9.12 5.76-8.34 11.14"/></defs><clipPath id="SVGID_2_"><use xlink:href="#SVGID_1_" style="overflow:visible"/></clipPath><g id="g30" style="clip-path:url(#SVGID_2_)"><path id="path36" d="m136.84 112.08-5.02 1.17-29.05-124.84 5.02-1.17 29.05 124.84z" style="fill-rule:evenodd;clip-rule:evenodd;fill:#cfdf97"/><path id="path38" d="m132.03 113.2-.64.15-29.05-124.84.64-.15 29.05 124.84z" style="fill-rule:evenodd;clip-rule:evenodd;fill:#cedf96"/><path id="path40" d="m131.61 113.3-.64.15-29.05-124.84.64-.15 29.05 124.84z" style="fill-rule:evenodd;clip-rule:evenodd;fill:#cede96"/><path id="path42" class="st7" d="m131.18 113.4-.64.15-29.05-124.84.64-.15 29.05 124.84z"/><path id="path44" class="st7" d="m130.76 113.5-.64.15-29.05-124.84.64-.15 29.05 124.84z"/><path id="path46" d="m130.33 113.6-.64.15-29.04-124.84.64-.15 29.04 124.84z" style="fill-rule:evenodd;clip-rule:evenodd;fill:#ccdd94"/><path id="path48" d="m129.91 113.7-.64.15L100.22-11l.64-.15 29.05 124.85z" style="fill-rule:evenodd;clip-rule:evenodd;fill:#cbdd94"/><path id="path50" d="m129.49 113.79-.64.15L99.8-10.9l.64-.15 29.05 124.84z" style="fill-rule:evenodd;clip-rule:evenodd;fill:#cbdd93"/><path id="path52" d="m129.06 113.89-.64.15L99.37-10.8l.64-.15 29.05 124.84z" style="fill-rule:evenodd;clip-rule:evenodd;fill:#cadc93"/><path id="path54" d="m128.64 113.99-.64.15L98.95-10.7l.64-.15 29.05 124.84z" style="fill-rule:evenodd;clip-rule:evenodd;fill:#cadc92"/><path id="path56" d="m128.21 114.09-.64.15L98.53-10.6l.64-.15 29.04 124.84z" style="fill-rule:evenodd;clip-rule:evenodd;fill:#c9dc92"/><path id="path58" d="m127.79 114.19-.64.15L98.1-10.5l.64-.15 29.05 124.84z" style="fill-rule:evenodd;clip-rule:evenodd;fill:#c9db91"/><path id="path60" d="m127.37 114.29-.64.15L97.68-10.4l.64-.15 29.05 124.84z" style="fill-rule:evenodd;clip-rule:evenodd;fill:#c8db90"/><path id="path62" d="m126.94 114.39-.64.15L97.25-10.3l.64-.15 29.05 124.84z" style="fill-rule:evenodd;clip-rule:evenodd;fill:#c7db90"/><path id="path64" d="m126.52 114.48-.64.15L96.83-10.21l.64-.15 29.05 124.84z" style="fill-rule:evenodd;clip-rule:evenodd;fill:#c7db8f"/><path id="path66" d="m126.09 114.58-.64.15L96.41-10.11l.64-.15 29.04 124.84z" style="fill-rule:evenodd;clip-rule:evenodd;fill:#c6da8f"/><path id="path68" d="m125.67 114.68-.64.15L95.98-10.01l.64-.15 29.05 124.84z" style="fill-rule:evenodd;clip-rule:evenodd;fill:#c6da8e"/><path id="path70" d="m125.24 114.78-.64.15L95.56-9.91l.64-.15 29.04 124.84z" style="fill-rule:evenodd;clip-rule:evenodd;fill:#c5da8e"/><path id="path72" class="st21" d="m124.82 114.88-.64.15L95.13-9.81l.64-.15 29.05 124.84z"/><path id="path74" class="st21" d="m124.4 114.98-.64.15L94.71-9.71l.64-.15 29.05 124.84z"/><path id="path76" d="m123.97 115.08-.64.15L94.29-9.61l.64-.15 29.04 124.84z" style="fill-rule:evenodd;clip-rule:evenodd;fill:#c3d98c"/><path id="path78" d="m123.55 115.18-.64.15L93.86-9.52l.64-.15 29.05 124.85z" style="fill-rule:evenodd;clip-rule:evenodd;fill:#c3d88c"/><path id="path80" d="m123.12 115.27-.64.15L93.44-9.42l.64-.15 29.04 124.84z" style="fill-rule:evenodd;clip-rule:evenodd;fill:#c2d88b"/><path id="path82" d="m122.7 115.37-.64.15L93.01-9.32l.64-.15 29.05 124.84z" style="fill-rule:evenodd;clip-rule:evenodd;fill:#c2d88a"/><path id="path84" d="m122.28 115.47-.64.15L92.59-9.22l.64-.15 29.05 124.84z" style="fill-rule:evenodd;clip-rule:evenodd;fill:#c1d78a"/><path id="path86" class="st27" d="m121.85 115.57-.64.15L92.16-9.12l.64-.15 29.05 124.84z"/><path id="path88" class="st27" d="m121.43 115.67-.64.15L91.74-9.02l.64-.15 29.05 124.84z"/><path id="path90" class="st28" d="m121 115.77-.64.15L91.32-8.92l.64-.15L121 115.77z"/><path id="path92" class="st28" d="m120.58 115.87-.64.15L90.89-8.82l.64-.15 29.05 124.84z"/><path id="path94" d="m120.16 115.97-.64.15L90.47-8.73l.64-.15 29.05 124.85z" style="fill-rule:evenodd;clip-rule:evenodd;fill:#bed687"/><path id="path96" d="m119.73 116.06-.64.15L90.04-8.63l.64-.15 29.05 124.84z" style="fill-rule:evenodd;clip-rule:evenodd;fill:#bdd587"/><path id="path98" d="m119.31 116.16-.64.15L89.62-8.53l.64-.15 29.05 124.84z" style="fill-rule:evenodd;clip-rule:evenodd;fill:#bdd586"/><path id="path100" d="m118.88 116.26-.64.15L89.2-8.43l.64-.15 29.04 124.84z" style="fill-rule:evenodd;clip-rule:evenodd;fill:#bcd585"/><path id="path102" d="m118.46 116.36-.64.15L88.77-8.33l.64-.15 29.05 124.84z" style="fill-rule:evenodd;clip-rule:evenodd;fill:#bcd485"/><path id="path104" d="m118.03 116.46-.64.15L88.35-8.23l.64-.15 29.04 124.84z" style="fill-rule:evenodd;clip-rule:evenodd;fill:#bbd484"/><path id="path106" d="m117.61 116.56-.64.15L87.92-8.13l.64-.15 29.05 124.84z" style="fill-rule:evenodd;clip-rule:evenodd;fill:#bad484"/><path id="path108" d="m117.19 116.66-.64.15L87.5-8.03l.64-.15 29.05 124.84z" style="fill-rule:evenodd;clip-rule:evenodd;fill:#bad383"/><path id="path110" d="m116.76 116.75-.64.15L87.08-7.94l.64-.15 29.04 124.84z" style="fill-rule:evenodd;clip-rule:evenodd;fill:#b9d383"/><path id="path112" d="m116.34 116.85-.64.15L86.65-7.84l.64-.15 29.05 124.84z" style="fill-rule:evenodd;clip-rule:evenodd;fill:#b9d382"/><path id="path114" d="m115.91 116.95-.64.15L86.23-7.74l.64-.15 29.04 124.84z" style="fill-rule:evenodd;clip-rule:evenodd;fill:#b8d282"/><path id="path116" d="m115.49 117.05-.64.15L85.8-7.64l.64-.15 29.05 124.84z" style="fill-rule:evenodd;clip-rule:evenodd;fill:#b8d281"/><path id="path118" d="m115.07 117.15-.64.15L85.38-7.54l.64-.15 29.05 124.84z" style="fill-rule:evenodd;clip-rule:evenodd;fill:#b7d281"/><path id="path120" d="m114.64 117.25-.64.15L84.95-7.44l.64-.15 29.05 124.84z" style="fill-rule:evenodd;clip-rule:evenodd;fill:#b6d280"/><path id="path122" d="m114.22 117.35-.64.15L84.53-7.34l.64-.15 29.05 124.84z" style="fill-rule:evenodd;clip-rule:evenodd;fill:#b6d17f"/><path id="path124" d="m113.79 117.45-.64.15L84.11-7.25l.64-.15 29.04 124.85z" style="fill-rule:evenodd;clip-rule:evenodd;fill:#b5d17f"/><path id="path126" d="m113.37 117.54-.64.15L83.68-7.15l.64-.15 29.05 124.84z" style="fill-rule:evenodd;clip-rule:evenodd;fill:#b5d17e"/><path id="path128" d="m112.95 117.64-.64.15L83.26-7.05l.64-.15 29.05 124.84z" style="fill-rule:evenodd;clip-rule:evenodd;fill:#b4d07e"/><path id="path130" class="st47" d="m112.52 117.74-.64.15L82.83-6.95l.64-.15 29.05 124.84z"/><path id="path132" class="st47" d="m112.1 117.84-.64.15L82.41-6.85l.64-.15 29.05 124.84z"/><path id="path134" class="st48" d="m111.67 117.94-.64.15L81.99-6.75l.64-.15 29.04 124.84z"/><path id="path136" class="st48" d="m111.25 118.04-.64.15L81.56-6.65l.64-.15 29.05 124.84z"/><path id="path138" d="m110.82 118.14-.64.15L81.14-6.55l.64-.15 29.04 124.84z" style="fill-rule:evenodd;clip-rule:evenodd;fill:#b1cf7b"/><path id="path140" d="m110.4 118.24-.64.15L80.71-6.46l.64-.15 29.05 124.85z" style="fill-rule:evenodd;clip-rule:evenodd;fill:#b1ce7b"/><path id="path142" d="m109.98 118.33-.64.15L80.29-6.36l.64-.15 29.05 124.84z" style="fill-rule:evenodd;clip-rule:evenodd;fill:#b0ce7a"/><path id="path144" d="m109.55 118.43-.64.15L79.87-6.26l.64-.15 29.04 124.84z" style="fill-rule:evenodd;clip-rule:evenodd;fill:#afce79"/><path id="path146" d="m109.13 118.53-.64.15L79.44-6.16l.64-.15 29.05 124.84z" style="fill-rule:evenodd;clip-rule:evenodd;fill:#afcd79"/><path id="path148" class="st54" d="m108.7 118.63-.64.15L79.02-6.06l.64-.15 29.04 124.84z"/><path id="path150" class="st54" d="m108.28 118.73-.64.15L78.59-5.96l.64-.15 29.05 124.84z"/><path id="path152" d="m107.86 118.83-.64.15L78.17-5.86l.64-.15 29.05 124.84z" style="fill-rule:evenodd;clip-rule:evenodd;fill:#adcc77"/><path id="path154" d="m107.43 118.93-.64.15L77.74-5.76l.64-.15 29.05 124.84z" style="fill-rule:evenodd;clip-rule:evenodd;fill:#accc77"/><path id="path156" d="m107.01 119.02-.64.15L77.32-5.67l.64-.15 29.05 124.84z" style="fill-rule:evenodd;clip-rule:evenodd;fill:#accc76"/><path id="path158" d="m106.58 119.12-.64.15L76.9-5.57l.64-.15 29.04 124.84z" style="fill-rule:evenodd;clip-rule:evenodd;fill:#abcb76"/><path id="path160" d="m106.16 119.22-.64.15L76.47-5.47l.64-.15 29.05 124.84z" style="fill-rule:evenodd;clip-rule:evenodd;fill:#abcb75"/><path id="path162" d="m105.74 119.32-.64.15L76.05-5.37l.64-.15 29.05 124.84z" style="fill-rule:evenodd;clip-rule:evenodd;fill:#aacb75"/><path id="path164" d="m105.31 119.42-.64.15L75.62-5.27l.64-.15 29.05 124.84z" style="fill-rule:evenodd;clip-rule:evenodd;fill:#a9ca74"/><path id="path166" d="m104.89 119.52-.64.15L75.2-5.17l.64-.15 29.05 124.84z" style="fill-rule:evenodd;clip-rule:evenodd;fill:#a8c972"/><path id="path168" d="m104.46 119.62-.64.15L74.78-5.07l.64-.15 29.04 124.84z" style="fill-rule:evenodd;clip-rule:evenodd;fill:#a6c870"/><path id="path170" d="m104.04 119.72-.64.15L74.35-4.98l.64-.15 29.05 124.85z" style="fill-rule:evenodd;clip-rule:evenodd;fill:#a4c76f"/><path id="path172" d="m103.62 119.81-.64.15L73.93-4.88l.64-.15 29.05 124.84z" style="fill-rule:evenodd;clip-rule:evenodd;fill:#a2c66d"/><path id="path174" d="m103.19 119.91-.64.15L73.5-4.78l.64-.15 29.05 124.84z" style="fill-rule:evenodd;clip-rule:evenodd;fill:#a0c56b"/><path id="path176" d="m102.77 120.01-.64.15L73.08-4.68l.64-.15 29.05 124.84z" style="fill-rule:evenodd;clip-rule:evenodd;fill:#9ec46a"/><path id="path178" d="m102.34 120.11-.64.15L72.66-4.58l.64-.15 29.04 124.84z" style="fill-rule:evenodd;clip-rule:evenodd;fill:#9cc368"/><path id="path180" d="m101.92 120.21-.64.15L72.23-4.48l.64-.15 29.05 124.84z" style="fill-rule:evenodd;clip-rule:evenodd;fill:#9bc266"/><path id="path182" d="m101.49 120.31-.64.15L71.81-4.38l.64-.15 29.04 124.84z" style="fill-rule:evenodd;clip-rule:evenodd;fill:#99c164"/><path id="path184" d="m101.07 120.41-.64.15L71.38-4.28l.64-.15 29.05 124.84z" style="fill-rule:evenodd;clip-rule:evenodd;fill:#97c063"/><path id="path186" d="m100.65 120.51-.64.15L70.96-4.19l.64-.15 29.05 124.85z" style="fill-rule:evenodd;clip-rule:evenodd;fill:#95bf61"/><path id="path188" d="m100.22 120.6-.64.15L70.54-4.09l.64-.15 29.04 124.84z" style="fill-rule:evenodd;clip-rule:evenodd;fill:#93be5f"/><path id="path190" d="m99.8 120.7-.64.15L70.11-3.99l.64-.15L99.8 120.7z" style="fill-rule:evenodd;clip-rule:evenodd;fill:#91bd5d"/><path id="path192" d="m99.37 120.8-.64.15L69.69-3.89l.64-.15L99.37 120.8z" style="fill-rule:evenodd;clip-rule:evenodd;fill:#8fbc5c"/><path id="path194" d="m98.95 120.9-.64.15L69.26-3.79l.64-.15L98.95 120.9z" style="fill-rule:evenodd;clip-rule:evenodd;fill:#8ebb5a"/><path id="path196" d="m98.53 121-.64.15L68.84-3.69l.64-.15L98.53 121z" style="fill-rule:evenodd;clip-rule:evenodd;fill:#8cba58"/><path id="path198" d="m98.1 121.1-.64.15L68.41-3.59l.64-.15L98.1 121.1z" style="fill-rule:evenodd;clip-rule:evenodd;fill:#8ab956"/><path id="path200" d="m97.68 121.2-.64.15L67.99-3.49l.64-.15L97.68 121.2z" style="fill-rule:evenodd;clip-rule:evenodd;fill:#88b855"/><path id="path202" d="m97.25 121.29-.64.15L67.57-3.4l.64-.15 29.04 124.84z" style="fill-rule:evenodd;clip-rule:evenodd;fill:#86b753"/><path id="path204" d="m96.83 121.39-.64.15L67.14-3.3l.64-.15 29.05 124.84z" style="fill-rule:evenodd;clip-rule:evenodd;fill:#84b651"/><path id="path206" d="m96.41 121.49-.64.15L66.72-3.2l.64-.15 29.05 124.84z" style="fill-rule:evenodd;clip-rule:evenodd;fill:#83b551"/><path id="path208" d="m95.98 121.59-.64.15L66.29-3.1l.64-.15 29.05 124.84z" style="fill-rule:evenodd;clip-rule:evenodd;fill:#82b450"/><path id="path210" d="m95.56 121.69-.64.15L65.87-3l.64-.15 29.05 124.84z" style="fill-rule:evenodd;clip-rule:evenodd;fill:#81b450"/><path id="path212" d="m95.13 121.79-.64.15L65.45-2.9l.64-.15 29.04 124.84z" style="fill-rule:evenodd;clip-rule:evenodd;fill:#80b34f"/><path id="path214" d="m94.71 121.89-.64.15L65.02-2.8l.64-.15 29.05 124.84z" style="fill-rule:evenodd;clip-rule:evenodd;fill:#7fb24f"/><path id="path216" d="m94.28 121.99-.64.15L64.6-2.71l.64-.15 29.04 124.85z" style="fill-rule:evenodd;clip-rule:evenodd;fill:#7eb14e"/><path id="path218" d="m93.86 122.08-.64.15L64.17-2.61l.64-.15 29.05 124.84z" style="fill-rule:evenodd;clip-rule:evenodd;fill:#7db04e"/><path id="path220" d="m93.44 122.18-.64.15L63.75-2.51l.64-.15 29.05 124.84z" style="fill-rule:evenodd;clip-rule:evenodd;fill:#7caf4d"/><path id="path222" d="m93.01 122.28-.64.15L63.33-2.41l.64-.15 29.04 124.84z" style="fill-rule:evenodd;clip-rule:evenodd;fill:#7aaf4d"/><path id="path224" d="m92.59 122.38-.64.15L62.9-2.31l.64-.15 29.05 124.84z" style="fill-rule:evenodd;clip-rule:evenodd;fill:#79ae4c"/><path id="path226" d="m92.16 122.48-.64.15L62.48-2.21l.64-.15 29.04 124.84z" style="fill-rule:evenodd;clip-rule:evenodd;fill:#78ad4c"/><path id="path228" d="m91.74 122.58-.64.15L62.05-2.11l.64-.15 29.05 124.84z" style="fill-rule:evenodd;clip-rule:evenodd;fill:#77ac4b"/><path id="path230" d="m91.32 122.68-.64.15L61.63-2.01l.64-.15 29.05 124.84z" style="fill-rule:evenodd;clip-rule:evenodd;fill:#76ab4b"/><path id="path232" d="m90.89 122.77-.64.15L61.2-1.92l.64-.15 29.05 124.84z" style="fill-rule:evenodd;clip-rule:evenodd;fill:#75aa4a"/><path id="path234" d="m90.47 122.87-.64.15L60.78-1.82l.64-.15 29.05 124.84z" style="fill-rule:evenodd;clip-rule:evenodd;fill:#74aa4a"/><path id="path236" d="m90.04 122.97-.64.15L60.36-1.72l.64-.15 29.04 124.84z" style="fill-rule:evenodd;clip-rule:evenodd;fill:#73a949"/><path id="path238" d="m89.62 123.07-.64.15L59.93-1.62l.64-.15 29.05 124.84z" style="fill-rule:evenodd;clip-rule:evenodd;fill:#72a849"/><path id="path240" d="m89.2 123.17-.64.15L59.51-1.52l.64-.15L89.2 123.17z" style="fill-rule:evenodd;clip-rule:evenodd;fill:#71a748"/><path id="path242" d="m88.77 123.27-.64.15L59.08-1.42l.64-.15 29.05 124.84z" style="fill-rule:evenodd;clip-rule:evenodd;fill:#70a648"/><path id="path244" d="m88.35 123.37-.64.15L58.66-1.32l.64-.15 29.05 124.84z" style="fill-rule:evenodd;clip-rule:evenodd;fill:#6fa547"/><path id="path246" d="m87.92 123.47-.64.15L58.24-1.22l.64-.15 29.04 124.84z" style="fill-rule:evenodd;clip-rule:evenodd;fill:#6ea547"/><path id="path248" d="m87.5 123.56-.64.15L57.81-1.13l.64-.15L87.5 123.56z" style="fill-rule:evenodd;clip-rule:evenodd;fill:#6ca446"/><path id="path250" d="m87.07 123.66-.64.15L57.39-1.03l.64-.15 29.04 124.84z" style="fill-rule:evenodd;clip-rule:evenodd;fill:#6ba346"/><path id="path252" d="m86.65 123.76-.64.15L56.96-.93l.64-.15 29.05 124.84z" style="fill-rule:evenodd;clip-rule:evenodd;fill:#6aa245"/><path id="path254" d="m86.23 123.86-.64.15L56.54-.83l.64-.15 29.05 124.84z" style="fill-rule:evenodd;clip-rule:evenodd;fill:#69a145"/><path id="path256" d="m85.8 123.96-.64.15L56.12-.73l.64-.15L85.8 123.96z" style="fill-rule:evenodd;clip-rule:evenodd;fill:#68a044"/><path id="path258" d="m85.38 124.06-.64.15L55.69-.63l.64-.15 29.05 124.84z" style="fill-rule:evenodd;clip-rule:evenodd;fill:#67a044"/><path id="path260" d="m84.95 124.16-.64.15L55.27-.53l.64-.15 29.04 124.84z" style="fill-rule:evenodd;clip-rule:evenodd;fill:#669f43"/><path id="path262" d="m84.53 124.26-.64.15L54.84-.44l.64-.15 29.05 124.85z" style="fill-rule:evenodd;clip-rule:evenodd;fill:#659e43"/><path id="path264" d="m84.11 124.35-.64.15L54.42-.34l.64-.15 29.05 124.84z" style="fill-rule:evenodd;clip-rule:evenodd;fill:#649d42"/><path id="path266" d="m83.68 124.45-.64.15L54-.24l.64-.15 29.04 124.84z" style="fill-rule:evenodd;clip-rule:evenodd;fill:#639c42"/><path id="path268" d="m83.26 124.55-.64.15L53.57-.14l.64-.15 29.05 124.84z" style="fill-rule:evenodd;clip-rule:evenodd;fill:#629b41"/><path id="path270" d="m82.83 124.65-.64.15L53.15-.04l.64-.15 29.04 124.84z" style="fill-rule:evenodd;clip-rule:evenodd;fill:#619b41"/><path id="path272" d="m82.41 124.75-.64.15L52.72.06l.64-.15 29.05 124.84z" style="fill-rule:evenodd;clip-rule:evenodd;fill:#5f9a40"/><path id="path274" d="m81.99 124.85-.64.15L52.3.16l.64-.15 29.05 124.84z" style="fill-rule:evenodd;clip-rule:evenodd;fill:#5e9940"/><path id="path276" d="m81.56 124.95-.64.15L51.87.26l.64-.15 29.05 124.84z" style="fill-rule:evenodd;clip-rule:evenodd;fill:#5d983f"/><path id="path278" d="m81.14 125.04-.64.15L51.45.35l.64-.15 29.05 124.84z" style="fill-rule:evenodd;clip-rule:evenodd;fill:#5c973f"/><path id="path280" d="m80.71 125.14-.64.15L51.03.45l.64-.15 29.04 124.84z" style="fill-rule:evenodd;clip-rule:evenodd;fill:#5b963e"/><path id="path282" d="m80.29 125.24-.64.15L50.6.55l.64-.15 29.05 124.84z" style="fill-rule:evenodd;clip-rule:evenodd;fill:#5a963e"/><path id="path284" d="m79.87 125.34-.64.15L50.18.65l.64-.15 29.05 124.84z" style="fill-rule:evenodd;clip-rule:evenodd;fill:#59953d"/><path id="path286" d="m79.44 125.44-.64.15L49.75.75l.64-.15 29.05 124.84z" style="fill-rule:evenodd;clip-rule:evenodd;fill:#58943d"/><path id="path288" d="m79.02 125.54-.64.15L49.33.85l.64-.15 29.05 124.84z" style="fill-rule:evenodd;clip-rule:evenodd;fill:#58933d"/><path id="path290" class="st124" d="m78.59 125.64-.64.15L48.91.95l.64-.15 29.04 124.84z"/><path id="path292" class="st124" d="m78.17 125.74-.64.15L48.48 1.05l.64-.15 29.05 124.84z"/><path id="path294" d="m77.74 125.83-.64.15L48.06 1.14l.63-.14 29.05 124.83z" style="fill-rule:evenodd;clip-rule:evenodd;fill:#56913b"/><path id="path296" d="m77.32 125.93-.64.15L47.63 1.24l.64-.15 29.05 124.84z" style="fill-rule:evenodd;clip-rule:evenodd;fill:#56903b"/><path id="path298" d="m76.9 126.03-.64.15L47.21 1.34l.64-.15L76.9 126.03z" style="fill-rule:evenodd;clip-rule:evenodd;fill:#568f3b"/><path id="path300" d="m76.47 126.13-.64.15L46.79 1.44l.64-.15 29.04 124.84z" style="fill-rule:evenodd;clip-rule:evenodd;fill:#558e3a"/><path id="path302" class="st129" d="m76.05 126.23-.64.15L46.36 1.54l.64-.15 29.05 124.84z"/><path id="path304" class="st129" d="m75.62 126.33-.64.15L45.94 1.64l.64-.15 29.04 124.84z"/><path id="path306" d="m75.2 126.43-.64.15L45.51 1.74l.64-.15L75.2 126.43z" style="fill-rule:evenodd;clip-rule:evenodd;fill:#548c39"/><path id="path308" d="m74.78 126.53-.64.15L45.09 1.83l.64-.15 29.05 124.85z" style="fill-rule:evenodd;clip-rule:evenodd;fill:#548b39"/><path id="path310" d="m74.35 126.62-.64.15L44.66 1.93l.64-.15 29.05 124.84z" style="fill-rule:evenodd;clip-rule:evenodd;fill:#538a38"/><path id="path312" class="st133" d="m73.93 126.72-.64.15L44.24 2.03l.64-.15 29.05 124.84z"/><path id="path314" class="st133" d="m73.5 126.82-.64.15L43.82 2.13l.64-.15L73.5 126.82z"/><path id="path316" d="m73.08 126.92-.64.15L43.39 2.23l.64-.15 29.05 124.84z" style="fill-rule:evenodd;clip-rule:evenodd;fill:#528837"/><path id="path318" d="m72.66 127.02-.64.15L42.97 2.33l.64-.15 29.05 124.84z" style="fill-rule:evenodd;clip-rule:evenodd;fill:#528737"/><path id="path320" d="m72.23 127.12-.64.15L42.54 2.43l.64-.15 29.05 124.84z" style="fill-rule:evenodd;clip-rule:evenodd;fill:#528637"/><path id="path322" d="m71.81 127.22-.64.15L42.12 2.53l.64-.15 29.05 124.84z" style="fill-rule:evenodd;clip-rule:evenodd;fill:#518536"/><path id="path324" d="m71.38 127.31-.64.15L41.7 2.62l.64-.15 29.04 124.84z" style="fill-rule:evenodd;clip-rule:evenodd;fill:#518436"/><path id="path326" d="m70.96 127.41-.64.15L41.27 2.72l.64-.15 29.05 124.84z" style="fill-rule:evenodd;clip-rule:evenodd;fill:#508435"/><path id="path328" d="m70.54 127.51-.64.15L40.85 2.82l.64-.15 29.05 124.84z" style="fill-rule:evenodd;clip-rule:evenodd;fill:#508335"/><path id="path330" d="m70.11 127.61-.64.15L40.42 2.92l.64-.15 29.05 124.84z" style="fill-rule:evenodd;clip-rule:evenodd;fill:#508235"/><path id="path332" d="m69.69 127.71-.64.15L40 3.02l.64-.15 29.05 124.84z" style="fill-rule:evenodd;clip-rule:evenodd;fill:#4f8134"/><path id="path334" class="st143" d="m69.26 127.81-.64.15L39.58 3.12l.64-.15 29.04 124.84z"/><path id="path336" class="st143" d="m68.84 127.91-.64.15L39.15 3.22l.64-.15 29.05 124.84z"/><path id="path338" d="m68.41 128.01-.64.15L38.73 3.32l.64-.15 29.04 124.84z" style="fill-rule:evenodd;clip-rule:evenodd;fill:#4e7f33"/><path id="path340" class="st145" d="m67.99 128.1-.64.15L38.3 3.41l.64-.15L67.99 128.1z"/><path id="path342" class="st145" d="m67.57 128.2-.64.15L37.88 3.51l.64-.15L67.57 128.2z"/><path id="path344" class="st146" d="m67.14 128.3-.64.15L37.46 3.61l.64-.15L67.14 128.3z"/><path id="path346" class="st146" d="m66.72 128.4-.64.15L37.03 3.71l.64-.15L66.72 128.4z"/><path id="path348" class="st147" d="m66.29 128.5-.64.15L36.61 3.81l.64-.15L66.29 128.5z"/><path id="path350" class="st147" d="m65.87 128.6-.64.15L36.18 3.91l.64-.15L65.87 128.6z"/><path id="path352" d="m65.45 128.7-.64.15L35.76 4.01l.64-.15L65.45 128.7z" style="fill-rule:evenodd;clip-rule:evenodd;fill:#4c7b31"/><path id="path354" class="st149" d="m65.02 128.8-.64.15L35.33 4.1l.64-.15L65.02 128.8z"/><path id="path356" class="st149" d="m64.6 128.89-.64.15L34.91 4.2l.64-.15L64.6 128.89z"/><path id="path358" d="m64.17 128.99-.64.15L34.49 4.3l.64-.15 29.04 124.84z" style="fill-rule:evenodd;clip-rule:evenodd;fill:#4c7931"/><path id="path360" d="m63.75 129.09-.64.15L34.06 4.4l.64-.15 29.05 124.84z" style="fill-rule:evenodd;clip-rule:evenodd;fill:#4b7930"/><path id="path362" class="st152" d="m63.33 129.19-.64.15L33.64 4.5l.64-.15 29.05 124.84z"/><path id="path364" class="st152" d="m62.9 129.29-.64.15L33.21 4.6l.64-.15L62.9 129.29z"/><path id="path366" d="m62.48 129.39-.64.15L32.79 4.7l.64-.15 29.05 124.84z" style="fill-rule:evenodd;clip-rule:evenodd;fill:#4b7730"/><path id="path368" class="st154" d="m62.05 129.49-.64.15L32.37 4.8l.63-.15 29.05 124.84z"/><path id="path370" class="st154" d="m61.63 129.58-.64.15L31.94 4.89l.64-.15 29.05 124.84z"/><path id="path372" class="st155" d="m61.2 129.68-.64.15L31.52 4.99l.64-.15L61.2 129.68z"/><path id="path374" class="st155" d="m60.78 129.78-.64.15L31.09 5.09l.64-.15 29.05 124.84z"/><path id="path376" class="st156" d="m60.36 129.88-.64.15L30.67 5.19l.64-.15 29.05 124.84z"/><path id="path378" class="st156" d="m59.93 129.98-.64.15L30.25 5.29l.64-.15 29.04 124.84z"/><path id="path380" d="m59.51 130.08-.64.15L29.82 5.39l.64-.15 29.05 124.84z" style="fill-rule:evenodd;clip-rule:evenodd;fill:#49732e"/><path id="path382" class="st158" d="m59.08 130.18-.64.15L29.4 5.49l.64-.15 29.04 124.84z"/><path id="path384" class="st158" d="m58.66 130.28-.64.15L28.97 5.58l.64-.15 29.05 124.85z"/><path id="path386" class="st159" d="m58.24 130.37-.64.15L28.55 5.68l.64-.15 29.05 124.84z"/><path id="path388" class="st159" d="m57.81 130.47-.64.15L28.12 5.78l.64-.15 29.05 124.84z"/><path id="path390" class="st160" d="m57.39 130.57-.64.15L27.7 5.88l.64-.15 29.05 124.84z"/><path id="path392" class="st160" d="m56.96 130.67-.64.15L27.28 5.98l.64-.15 29.04 124.84z"/><path id="path394" d="m56.54 130.77-.64.15L26.85 6.08l.64-.15 29.05 124.84z" style="fill-rule:evenodd;clip-rule:evenodd;fill:#476f2c"/><path id="path396" d="m56.12 130.87-.64.15L26.43 6.18l.64-.15 29.05 124.84z" style="fill-rule:evenodd;clip-rule:evenodd;fill:#476e2c"/><path id="path398" d="m55.69 130.97-.64.15L26 6.28l.64-.15 29.05 124.84z" style="fill-rule:evenodd;clip-rule:evenodd;fill:#466e2b"/><path id="path400" class="st164" d="m55.27 131.07-.64.15L25.58 6.37l.64-.15 29.05 124.85z"/><path id="path402" class="st164" d="m54.84 131.16-.64.15L25.16 6.47l.64-.15 29.04 124.84z"/><path id="path404" d="m54.42 131.26-.64.15L24.73 6.57l.64-.15 29.05 124.84z" style="fill-rule:evenodd;clip-rule:evenodd;fill:#466c2b"/><path id="path406" d="m54 131.36-.64.15L24.31 6.67l.64-.15L54 131.36z" style="fill-rule:evenodd;clip-rule:evenodd;fill:#456c2a"/><path id="path408" d="m53.57 131.46-.64.15L23.88 6.77l.64-.15 29.05 124.84z" style="fill-rule:evenodd;clip-rule:evenodd;fill:#456b2a"/><path id="path410" d="m53.15 131.56-.64.15L23.46 6.87l.64-.15 29.05 124.84z" style="fill-rule:evenodd;clip-rule:evenodd;fill:#456a2a"/><path id="path412" d="m52.72 131.66-.64.15L23.04 6.97l.64-.15 29.04 124.84z" style="fill-rule:evenodd;clip-rule:evenodd;fill:#446a2a"/><path id="path414" d="m52.3 131.76-.64.15L22.61 7.07l.64-.15L52.3 131.76z" style="fill-rule:evenodd;clip-rule:evenodd;fill:#44692a"/><path id="path416" d="m51.87 131.85-.63.15L22.19 7.16l.64-.15 29.04 124.84z" style="fill-rule:evenodd;clip-rule:evenodd;fill:#446929"/><path id="path418" class="st172" d="m51.45 131.95-.64.15L21.76 7.26l.64-.15 29.05 124.84z"/><path id="path420" class="st172" d="m51.03 132.05-.64.15L21.34 7.36l.64-.15 29.05 124.84z"/><path id="path422" d="m50.6 132.15-.64.15L20.92 7.46l.64-.15L50.6 132.15z" style="fill-rule:evenodd;clip-rule:evenodd;fill:#436729"/><path id="path424" class="st174" d="m50.18 132.25-.64.15L20.49 7.56l.64-.15 29.05 124.84z"/><path id="path426" class="st174" d="m49.75 132.35-.64.15L20.07 7.66l.64-.15 29.04 124.84z"/><path id="path428" class="st175" d="m49.33 132.45-.64.15L19.64 7.76l.64-.15 29.05 124.84z"/><path id="path430" class="st175" d="m48.91 132.55-.64.15L19.22 7.85l.64-.15 29.05 124.85z"/><path id="path432" d="m48.48 132.64-.64.15L18.79 7.95l.64-.15 29.05 124.84z" style="fill-rule:evenodd;clip-rule:evenodd;fill:#416428"/><path id="path434" class="st177" d="m48.06 132.74-.64.15L18.37 8.05l.64-.15 29.05 124.84z"/><path id="path436" class="st177" d="m47.63 132.84-.63.15L17.95 8.15l.63-.15 29.05 124.84z"/><path id="path438" d="m47.21 132.94-.64.15L17.52 8.25l.64-.15 29.05 124.84z" style="fill-rule:evenodd;clip-rule:evenodd;fill:#406228"/><path id="path440" class="st179" d="m46.79 133.04-.64.15L17.1 8.35l.64-.15 29.05 124.84z"/><path id="path442" class="st179" d="m46.36 133.14-.64.15L16.67 8.45l.64-.15 29.05 124.84z"/><path id="path444" class="st179" d="m45.94 133.24-.64.15L16.25 8.55l.64-.15 29.05 124.84z"/><path id="path446" class="st180" d="m45.51 133.33-.64.15L15.83 8.64l.64-.15 29.04 124.84z"/><path id="path448" class="st180" d="m45.09 133.43-.64.15L15.4 8.74l.64-.15 29.05 124.84z"/><path id="path450" class="st180" d="m44.66 133.53-.64.15L14.98 8.84l.64-.15 29.04 124.84z"/><path id="path452" class="st180" d="m44.24 133.63-.64.15L14.55 8.94l.64-.15 29.05 124.84z"/><path id="path454" class="st180" d="m43.82 133.73-.64.15L14.13 9.04l.64-.15 29.05 124.84z"/><path id="path456" class="st180" d="m43.39 133.83-.64.15L13.71 9.14l.64-.15 29.04 124.84z"/><path id="path458" d="m42.97 133.93-.64.15L13.28 9.24l.64-.15 29.05 124.84z" style="fill-rule:evenodd;clip-rule:evenodd;fill:#3f6028"/><path id="path460" class="st182" d="m42.54 134.03-.64.15L12.86 9.34l.64-.15 29.04 124.84z"/><path id="path462" class="st182" d="m42.12 134.12-.64.15L12.43 9.43l.64-.15 29.05 124.84z"/><path id="path464" class="st182" d="m41.7 134.22-.64.15L12.01 9.53l.64-.15L41.7 134.22z"/><path id="path466" class="st183" d="m41.27 134.32-.64.15L11.58 9.63l.64-.15 29.05 124.84z"/><path id="path468" class="st183" d="m40.85 134.42-.64.15L11.16 9.73l.64-.15 29.05 124.84z"/><path id="path470" class="st184" d="m40.42 134.52-.64.15L10.74 9.83l.64-.15 29.04 124.84z"/><path id="path472" class="st184" d="m40 134.62-.64.15L10.31 9.93l.64-.15L40 134.62z"/><path id="path474" class="st184" d="m39.58 134.72-.64.15L9.89 10.03l.64-.15 29.05 124.84z"/><path id="path476" class="st184" d="m39.15 134.82-.64.15L9.46 10.12l.64-.15 29.05 124.85z"/><path id="path478" class="st185" d="m38.73 134.91-.64.15L9.04 10.22l.64-.15 29.05 124.84z"/><path id="path480" class="st185" d="m38.3 135.01-.64.15L8.62 10.32l.64-.15L38.3 135.01z"/><path id="path482" class="st186" d="m37.88 135.11-.64.15L8.19 10.42l.64-.15 29.05 124.84z"/><path id="path484" class="st186" d="m37.46 135.21-.64.15L7.77 10.52l.64-.15 29.05 124.84z"/><path id="path486" class="st186" d="m37.03 135.31-.64.15L7.34 10.62l.64-.15 29.05 124.84z"/><path id="path488" class="st186" d="m36.61 135.41-.64.15L6.92 10.72l.64-.15 29.05 124.84z"/><path id="path490" class="st186" d="m36.18 135.51-.64.15L6.5 10.82l.64-.15 29.04 124.84z"/><path id="path492" class="st186" d="m35.76 135.6-.64.15L6.07 10.91l.64-.15L35.76 135.6z"/><path id="path494" class="st187" d="m35.33 135.7-.64.15L5.65 11.01l.64-.15L35.33 135.7z"/><path id="path496" class="st187" d="m34.91 135.8-.64.15L5.22 11.11l.64-.15L34.91 135.8z"/><path id="path498" class="st188" d="m34.49 135.9-.64.15L4.8 11.21l.64-.15L34.49 135.9z"/><path id="path500" class="st188" d="m34.06 136-.64.15L4.37 11.31l.64-.15L34.06 136z"/><path id="path502" class="st188" d="m33.64 136.1-.64.15L3.95 11.41l.64-.15L33.64 136.1z"/><path id="path504" class="st188" d="m33.21 136.2-.64.15L3.53 11.51l.64-.15L33.21 136.2z"/><path id="path506" class="st189" d="m32.79 136.3-.64.15L3.1 11.61l.64-.15L32.79 136.3z"/><path id="path508" class="st189" d="m32.37 136.39-.64.15L2.68 11.7l.64-.15 29.05 124.84z"/><path id="path510" class="st189" d="m31.94 136.49-.64.15L2.25 11.8l.64-.15 29.05 124.84z"/><path id="path512" class="st189" d="m31.52 136.59-.64.15L1.83 11.9l.64-.15 29.05 124.84z"/><path id="path514" class="st189" d="m31.09 136.69-.64.15L1.41 12l.64-.15 29.04 124.84z"/><path id="path516" class="st189" d="m30.67 136.79-.64.15L.98 12.1l.64-.15 29.05 124.84z"/><path id="path518" d="m30.25 136.89-.64.15L.56 12.2l.64-.15 29.05 124.84z" style="fill-rule:evenodd;clip-rule:evenodd;fill:#3b5b27"/><path id="path520" class="st191" d="m29.82 136.99-.64.15L.13 12.3l.64-.15 29.05 124.84z"/><path id="path522" class="st191" d="m29.4 137.09-.64.15L-.29 12.39l.64-.15L29.4 137.09z"/><path id="path524" class="st191" d="m28.97 137.18-.64.15L-.71 12.49l.64-.15 29.04 124.84z"/><path id="path526" class="st191" d="m28.55 137.28-.64.15L-1.14 12.59l.64-.15 29.05 124.84z"/><path id="path528" class="st191" d="m28.12 137.38-.64.15L-1.56 12.69l.64-.15 29.04 124.84z"/><path id="path530" class="st192" d="m27.7 137.48-.64.15L-1.99 12.79l.64-.15L27.7 137.48z"/><path id="path532" class="st192" d="m27.28 137.58-.64.15L-2.41 12.89l.64-.15 29.05 124.84z"/><path id="path534" class="st192" d="m26.85 137.68-.64.15L-2.83 12.99l.64-.15 29.04 124.84z"/><path id="path536" class="st192" d="m26.43 137.78-.64.15L-3.26 13.09l.64-.15 29.05 124.84z"/><path id="path538" class="st193" d="m26 137.87-.64.15L-3.68 13.18l.64-.15L26 137.87z"/><path id="path540" class="st193" d="m25.58 137.97-.64.15L-4.11 13.28l.64-.15 29.05 124.84z"/><path id="path542" class="st194" d="m25.16 138.07-.64.15L-4.53 13.38l.64-.15 29.05 124.84z"/><path id="path544" class="st194" d="m24.73 138.17-.64.15L-4.96 13.48l.64-.15 29.05 124.84z"/><path id="path546" class="st194" d="m24.31 138.27-8.17 1.9-29.06-124.84 8.17-1.9 29.06 124.84z"/></g></g></g></svg>