<svg version="1.1" id="Layer_1" xmlns="http://www.w3.org/2000/svg" xmlns:xlink="http://www.w3.org/1999/xlink" x="0" y="0" viewBox="0 0 96.12 98.93" style="enable-background:new 0 0 96.12 98.93" xml:space="preserve"><style>.st0{fill-rule:evenodd;clip-rule:evenodd;fill:#4d9335}.st5{fill:#cdde95}.st19{fill:#c4d98d}.st25{fill:#c0d789}.st26{fill:#bfd688}.st45{fill:#b3d07d}.st46{fill:#b2cf7c}.st52{fill:#aecd78}.st122{fill:#57923c}.st127{fill:#558d3a}.st131{fill:#538938}.st141{fill:#4f8034}.st143{fill:#4e7e33}.st144{fill:#4d7d32}.st145{fill:#4d7c32}.st147{fill:#4c7a31}.st150{fill:#4b7830}.st152{fill:#4a762f}.st153{fill:#4a752f}.st154{fill:#49742e}.st156{fill:#48722d}.st157{fill:#48712d}.st158{fill:#47702c}.st162{fill:#466d2b}.st170{fill:#436829}.st172{fill:#426629}.st173{fill:#416529}.st175{fill:#406328}.st177{fill:#3f6228}.st178{fill:#3f6128}.st180{fill:#3e6028}.st181{fill:#3e6027}.st182{fill:#3e5f27}.st183{fill:#3d5f27}.st184{fill:#3d5e27}.st185{fill:#3d5d27}.st186{fill:#3c5d27}.st187{fill:#3c5c27}.st189{fill:#3b5b26}.st190{fill:#3b5a26}.st191{fill:#3a5a26}.st192{fill:#3a5926}</style><defs><path id="SVGID_1_" d="m81 37.8.1.8c0 .3.3.5.5.4l.8-.1c4.2-.6 7.1-4.5 6.5-8.6l-.1-.8c0-.3-.3-.4-.5-.4l-.8.1c-4.2.6-7.1 4.4-6.5 8.6M67.8 8.6v-.9c0-.3-.2-.5-.5-.5h-.8c-4.2 0-7.6 3.4-7.6 7.6v.9c0 .3.2.5.5.5h.8c4.2 0 7.6-3.5 7.6-7.6zm15.3 9.1.3-.8c.1-.3 0-.5-.3-.6l-.8-.3c-4-1.4-8.3.7-9.8 4.6l-.3.8c-.1.3 0 .5.3.6l.8.3c4 1.5 8.4-.6 9.8-4.6zm-17 10.1-.6.6c-.2.2-.2.5 0 .7l.6.6c2.9 3.1 7.7 3.3 10.8.4l.6-.6c.2-.2.2-.5 0-.7l-.6-.6c-2.8-3.1-7.7-3.3-10.8-.4zM5.8 67.4l-.2.8c0 .3.1.5.4.6l.8.1c4.1.7 8.1-2 8.9-6.1v-.1l.2-.8c0-.3-.1-.5-.4-.6l-.8-.2c-4.1-.7-8.1 2.1-8.9 6.3zm75.3-6.2-.8.2c-.3 0-.4.3-.4.6l.1.7c.7 4.2 4.7 6.9 8.8 6.2l.8-.1c.3 0 .4-.3.4-.6v-.8c-.8-4.1-4.7-6.9-8.9-6.2zM18 68.3l-.4.7c-.1.2-.1.5.2.7l.7.4c3.6 2.1 8.3.9 10.4-2.8l.4-.7c.1-.2.1-.5-.1-.7l-.7-.4c-3.7-2.1-8.4-.8-10.5 2.8zm74.5-20.1c-3.4-2.5-8.2-1.7-10.7 1.7l-.5.7c-.2.2-.1.5.1.7l.7.5c3.4 2.5 8.2 1.7 10.7-1.7l.5-.7c.2-.2.1-.5-.1-.7l-.7-.5zM50.1 10.9l.8.2c.3.1.5-.1.6-.4l.2-.8c1-4.1-1.4-8.3-5.5-9.3l-.8-.2c-.3-.1-.5.1-.6.3l-.3 1c-1 4.1 1.4 8.2 5.6 9.2-.1.1-.1.1 0 0zM27.9 7.7l-.8-.3c-.2-.1-.5 0-.6.3l-.3.8c-1.4 3.9.6 8.3 4.5 9.8h.1l.8.3c.3.1.5 0 .6-.3l.3-.8c1.4-4-.6-8.3-4.6-9.8zM12.7 43.5c3-3 3-7.8 0-10.8l-.6-.6c-.2-.2-.5-.2-.7 0l-.6.6c-3 3-3 7.8 0 10.8l.6.6c.2.2.5.2.7 0l.6-.6zM18.2 30c.6-4.2-2.3-8-6.5-8.6l-.8-.1c-.3 0-.5.1-.5.4l-.1.8c-.6 4.2 2.3 8 6.5 8.6l.8.1c.3 0 .5-.1.6-.4V30zm11.2 8.8-.8.3c-4 1.5-6 5.9-4.5 9.8l.3.8c.1.2.4.4.6.3l.8-.3c3.9-1.5 6-5.9 4.5-9.8l-.3-.8c-.1-.2-.4-.4-.6-.3zm18.8-17.7.1-.8c0-.3-.1-.5-.4-.6l-.8-.1c-4.2-.6-8 2.3-8.7 6.4l-.1.8c0 .3.1.5.4.5l.8.1c4.2.7 8.1-2.1 8.7-6.3zm6.5 21.3.1-.8c0-.3-.2-.5-.4-.6l-.8-.1c-4.2-.6-8 2.3-8.6 6.5l-.1.8c0 .3.1.5.4.5l.8.1c4.1.7 8-2.2 8.6-6.4zm-3 8.6-.8-.3c-.3-.1-.5 0-.6.3l-.3.8c-1.4 4 .6 8.3 4.6 9.8l.8.3c.3.1.5 0 .6-.3l.3-.8c1.4-4-.6-8.4-4.6-9.8zm13.2 14.5-.7.4c-.2.1-.3.4-.2.7l.4.7c2.1 3.6 6.8 4.9 10.4 2.8l.7-.4c.2-.1.3-.4.2-.7l-.4-.7c-2.1-3.7-6.8-4.9-10.4-2.8zm1.7-20.9c4.1-.9 6.7-4.9 5.8-9.1l-.1-.8c-.1-.3-.3-.4-.6-.4l-.8.2c-4.1.9-6.7 5-5.8 9.1l.2.8c.1.3.3.4.6.4l.7-.2zM60 1.3c.3.1.4.4.4.7 0 .1-.1.2-.1.2-1.3 1.4-3.6 5-4.3 14.2s-5 16.2-8.4 21.9c-2.5 4.1-4.6 7.7-4.8 10.9 4.7 7.4 7.1 16.1 6.9 24.8v23.2c0 .3-.2.5-.5.5h-2.8c-.3 0-.5-.2-.5-.5V74c0-13.1-4.5-20-8.4-26.1-4.6-7.1-9-13.8-3.7-27.7 4-10.5 5-16.4 5.2-19.3 0-.2.2-.4.4-.5.9-.2 1.9-.3 2.8-.4.3 0 .5.2.6.5v.1c-.2 3.2-1.2 9.6-5.5 21s-1.6 16.7 2.6 23.2c1.2-2.9 2.7-5.7 4.4-8.4 3.4-5.6 7.2-12 7.9-20.3S54.7 3.3 56.5.8c.1-.2.3-.2.5-.2 1 .2 2 .4 3 .7zm34.6 56.8c-.2.9-.4 1.8-.7 2.7-.1.3-.4.4-.7.4-15.2-5.7-28.5 1.5-31.7 3.5-1 5.6-1.5 11.3-1.3 17v15.5c0 .3-.2.5-.5.5h-2.8c-.3 0-.5-.2-.5-.5V81.7c0-7.5 0-19.9 5.5-28.5-3.8-4.4-5.9-10-5.9-15.8.2-5.5 2.7-10.8 6.9-14.4 6.7-6.1 7.8-11.6 7.4-16.7 0-.3.2-.5.5-.6.1 0 .2 0 .3.1 1 .5 1.9 1.1 2.8 1.7.2.1.2.3.2.4 0 5.2-1.7 11.4-8.7 17.8-3.5 2.9-5.5 7.1-5.6 11.6 0 4.6 1.6 9.1 4.6 12.7 1.5-1.6 3.2-2.8 5.1-3.8 4.2-2.1 8.7-3.6 13.4-4.5 6-1.4 9.2-2.3 10.5-5.8.1-.3.3-.5.6-.4.2 0 .4.2.4.4.3 1.3.6 2.7.8 4 0 .2 0 .3-.1.4-2.6 3-6.9 4-11.3 5-4.3.8-8.5 2.2-12.4 4.1-4 2.1-6.6 5.7-8.2 9.9 6.1-3 17.9-6.9 31.2-2 .1.3.2.6.2.8zM38.9 95.5v1.7c0 .3-.2.5-.5.5h-2.8c-.3 0-.5-.2-.5-.5v-1.7c0-10.8 0-22.6-3.8-30.8-2.9-1.9-15-9.2-29.2-3.6-.3.1-.6 0-.7-.3-.3-.9-.5-1.8-.7-2.7-.1-.3.1-.5.3-.6 8-3 16.9-2.9 24.8.2-1.4-1.1-3-1.9-4.7-2.5C8.2 50.9 2.9 43.7.7 37.9v-.3c.4-1.8.9-3.6 1.5-5.3.1-.3.4-.4.7-.4.2.1.4.3.4.5.4 4.3 3 12.3 14.9 17.6-1-6.9 0-12.9 1-18.2 1.3-7.5 2.4-13.6-2-20.4-.1-.2-.1-.5.1-.7.7-.6 1.4-1.2 2.2-1.7.2-.2.6-.1.7.1 5.3 8.2 4 15.5 2.7 23.3-1 5.9-2.1 11.9-.6 19.2h.1C39 57.1 39 77.5 38.9 95.5z"/></defs><clipPath id="SVGID_2_"><use xlink:href="#SVGID_1_" style="overflow:visible"/></clipPath><g style="clip-path:url(#SVGID_2_)"><path transform="rotate(-13.102 92.904 39)" style="fill:#cfdf97" d="M90.91-10.7h4v99.4h-4z"/><path transform="rotate(-13.109 90.837 39.412)" style="fill:#cedf96" d="M90.58-10.29h.5v99.4h-.5z"/><path transform="rotate(-13.069 90.538 39.51)" style="fill:#cede96" d="M90.29-10.19h.5v99.4h-.5z"/><path transform="rotate(-13.079 90.248 39.599)" class="st5" d="M90-10.1h.5v99.4H90z"/><path transform="rotate(-13.102 89.853 39.707)" class="st5" d="M89.61-9.99h.5v99.4h-.5z"/><path transform="rotate(-13.109 89.559 39.805)" style="fill:#ccdd94" d="M89.31-9.89h.5v99.4h-.5z"/><path transform="rotate(-13.109 89.24 39.803)" style="fill:#cbdd94" d="M88.99-9.9h.5v99.4h-.5z"/><path transform="rotate(-13.109 88.946 39.895)" style="fill:#cbdd93" d="M88.69-9.8h.5v99.4h-.5z"/><path transform="rotate(-13.109 88.551 40.01)" style="fill:#cadc93" d="M88.3-9.69h.5v99.4h-.5z"/><path transform="rotate(-13.119 88.256 40.099)" style="fill:#cadc92" d="M88.01-9.6h.5v99.4h-.5z"/><path transform="rotate(-13.079 87.94 40.097)" style="fill:#c9dc92" d="M87.69-9.6h.5v99.4h-.5z"/><path transform="rotate(-13.069 87.543 40.217)" style="fill:#c9db91" d="M87.29-9.48h.5v99.4h-.5z"/><path transform="rotate(-13.102 87.25 40.3)" style="fill:#c8db90" d="M87-9.4h.5V90H87z"/><path transform="rotate(-13.102 86.957 40.392)" style="fill:#c7db90" d="M86.71-9.31h.5v99.4h-.5z"/><path transform="rotate(-13.119 86.638 40.39)" style="fill:#c7db8f" d="M86.39-9.31h.5v99.4h-.5z"/><path transform="rotate(-13.109 86.244 40.51)" style="fill:#c6da8f" d="M85.99-9.19h.5v99.4h-.5z"/><path transform="rotate(-13.109 85.95 40.605)" style="fill:#c6da8e" d="M85.7-9.09h.5v99.4h-.5z"/><path transform="rotate(-13.109 85.653 40.697)" style="fill:#c5da8e" d="M85.4-9h.5v99.4h-.5z"/><path transform="rotate(-13.069 85.257 40.815)" class="st19" d="M85.01-8.89h.5v99.4h-.5z"/><path transform="rotate(-13.079 84.942 40.808)" class="st19" d="M84.7-8.89h.5v99.4h-.5z"/><path transform="rotate(-13.119 84.649 40.894)" style="fill:#c3d98c" d="M84.4-8.8h.5v99.4h-.5z"/><path transform="rotate(-13.102 84.352 40.986)" style="fill:#c3d88c" d="M84.1-8.71h.5v99.4h-.5z"/><path transform="rotate(-13.102 83.96 41.103)" style="fill:#c2d88b" d="M83.71-8.6h.5v99.4h-.5z"/><path transform="rotate(-13.109 83.64 41.103)" style="fill:#c2d88a" d="M83.39-8.6h.5v99.4h-.5z"/><path transform="rotate(-13.109 83.344 41.198)" style="fill:#c1d78a" d="M83.09-8.5h.5v99.4h-.5z"/><path transform="rotate(-13.109 82.952 41.31)" class="st25" d="M82.7-8.39h.5v99.4h-.5z"/><path transform="rotate(-13.094 82.636 41.31)" class="st25" d="M82.39-8.39h.5v99.4h-.5z"/><path transform="rotate(-13.079 82.341 41.402)" class="st26" d="M82.09-8.3h.5v99.4h-.5z"/><path transform="rotate(-13.109 82.046 41.494)" class="st26" d="M81.79-8.21h.5v99.4h-.5z"/><path transform="rotate(-13.109 81.651 41.608)" style="fill:#bed687" d="M81.4-8.09h.5v99.4h-.5z"/><path transform="rotate(-13.109 81.354 41.7)" style="fill:#bdd587" d="M81.1-8h.5v99.4h-.5z"/><path transform="rotate(-13.109 81.057 41.793)" style="fill:#bdd586" d="M80.8-7.91h.5v99.4h-.5z"/><path transform="rotate(-13.109 80.643 41.812)" style="fill:#bcd585" d="M80.39-7.89h.5v99.4h-.5z"/><path transform="rotate(-13.109 80.35 41.905)" style="fill:#bcd485" d="M80.1-7.79h.5v99.4h-.5z"/><path transform="rotate(-13.079 80.055 42)" style="fill:#bbd484" d="M79.81-7.7h.5v99.4h-.5z"/><path transform="rotate(-13.069 79.656 42.115)" style="fill:#bad484" d="M79.41-7.59h.5v99.4h-.5z"/><path transform="rotate(-13.079 79.346 42.11)" style="fill:#bad383" d="M79.1-7.59h.5v99.4h-.5z"/><path transform="rotate(-13.119 79.05 42.2)" style="fill:#b9d383" d="M78.8-7.5h.5v99.4h-.5z"/><path transform="rotate(-13.109 78.753 42.296)" style="fill:#b9d382" d="M78.5-7.4h.5V92h-.5z"/><path transform="rotate(-13.109 78.359 42.41)" style="fill:#b8d282" d="M78.11-7.29h.5v99.4h-.5z"/><path transform="rotate(-13.102 78.042 42.4)" style="fill:#b8d281" d="M77.79-7.3h.5v99.4h-.5z"/><path transform="rotate(-13.109 77.744 42.497)" style="fill:#b7d281" d="M77.49-7.2h.5v99.4h-.5z"/><path transform="rotate(-13.094 77.45 42.593)" style="fill:#b6d280" d="M77.2-7.11h.5v99.4h-.5z"/><path transform="rotate(-13.094 77.058 42.707)" style="fill:#b6d17f" d="M76.81-7h.5v99.4h-.5z"/><path transform="rotate(-13.079 76.74 42.704)" style="fill:#b5d17f" d="M76.49-7h.5v99.4h-.5z"/><path transform="rotate(-13.109 76.442 42.795)" style="fill:#b5d17e" d="M76.19-6.91h.5v99.4h-.5z"/><path transform="rotate(-13.109 76.052 42.91)" style="fill:#b4d07e" d="M75.8-6.79h.5v99.4h-.5z"/><path transform="rotate(-13.109 75.756 43.004)" class="st45" d="M75.5-6.7h.5v99.4h-.5z"/><path transform="rotate(-13.119 75.438 42.995)" class="st45" d="M75.19-6.7h.5v99.4h-.5z"/><path transform="rotate(-13.102 75.044 43.108)" class="st46" d="M74.8-6.59h.5v99.4h-.5z"/><path transform="rotate(-13.079 74.75 43.206)" class="st46" d="M74.5-6.49h.5v99.4h-.5z"/><path transform="rotate(-13.069 74.45 43.3)" style="fill:#b1cf7b" d="M74.2-6.4h.5V93h-.5z"/><path transform="rotate(-13.079 74.137 43.296)" style="fill:#b1ce7b" d="M73.89-6.4h.5V93h-.5z"/><path transform="rotate(-13.109 73.743 43.411)" style="fill:#b0ce7a" d="M73.49-6.29h.5v99.4h-.5z"/><path transform="rotate(-13.119 73.446 43.5)" style="fill:#afce79" d="M73.2-6.2h.5v99.4h-.5z"/><path transform="rotate(-13.109 73.152 43.596)" style="fill:#afcd79" d="M72.9-6.1h.5v99.4h-.5z"/><path transform="rotate(-13.109 72.757 43.71)" class="st52" d="M72.5-5.99h.5v99.4h-.5z"/><path transform="rotate(-13.109 72.44 43.708)" class="st52" d="M72.19-5.99h.5v99.4h-.5z"/><path transform="rotate(-13.069 72.147 43.805)" style="fill:#adcc77" d="M71.9-5.9h.5v99.4h-.5z"/><path transform="rotate(-13.079 71.85 43.894)" style="fill:#accc77" d="M71.6-5.81h.5v99.4h-.5z"/><path transform="rotate(-13.094 71.437 43.911)" style="fill:#accc76" d="M71.19-5.79h.5v99.4h-.5z"/><path transform="rotate(-13.109 71.14 44.003)" style="fill:#abcb76" d="M70.89-5.7h.5v99.4h-.5z"/><path transform="rotate(-13.109 70.843 44.097)" style="fill:#abcb75" d="M70.59-5.6h.5v99.4h-.5z"/><path transform="rotate(-13.109 70.449 44.213)" style="fill:#aacb75" d="M70.2-5.49h.5v99.4h-.5z"/><path transform="rotate(-13.109 70.154 44.307)" style="fill:#a9ca74" d="M69.9-5.39h.5v99.4h-.5z"/><path transform="rotate(-13.119 69.859 44.393)" style="fill:#a8c972" d="M69.61-5.31h.5v99.4h-.5z"/><path transform="rotate(-13.069 69.44 44.417)" style="fill:#a6c870" d="M69.19-5.28h.5v99.4h-.5z"/><path transform="rotate(-13.069 69.146 44.51)" style="fill:#a4c76f" d="M68.9-5.19h.5v99.4h-.5z"/><path transform="rotate(-13.069 68.855 44.606)" style="fill:#a2c66d" d="M68.61-5.09h.5v99.4h-.5z"/><path transform="rotate(-13.109 68.557 44.696)" style="fill:#a0c56b" d="M68.3-5h.5v99.4h-.5z"/><path transform="rotate(-13.119 68.144 44.71)" style="fill:#9ec46a" d="M67.89-4.99h.5v99.4h-.5z"/><path transform="rotate(-13.119 67.849 44.8)" style="fill:#9cc368" d="M67.6-4.9h.5v99.4h-.5z"/><path transform="rotate(-13.109 67.55 44.897)" style="fill:#9bc266" d="M67.3-4.8h.5v99.4h-.5z"/><path transform="rotate(-13.109 67.256 44.992)" style="fill:#99c164" d="M67-4.71h.5v99.4H67z"/><path transform="rotate(-13.079 66.842 45.01)" style="fill:#97c063" d="M66.59-4.69h.5v99.4h-.5z"/><path transform="rotate(-13.069 66.54 45.103)" style="fill:#95bf61" d="M66.29-4.6h.5v99.4h-.5z"/><path transform="rotate(-13.079 66.25 45.194)" style="fill:#93be5f" d="M66-4.51h.5v99.4H66z"/><path transform="rotate(-13.102 65.859 45.303)" style="fill:#91bd5d" d="M65.61-4.4h.5V95h-.5z"/><path transform="rotate(-13.109 65.54 45.305)" style="fill:#8fbc5c" d="M65.29-4.39h.5v99.4h-.5z"/><path transform="rotate(-13.109 65.244 45.4)" style="fill:#8ebb5a" d="M64.99-4.3h.5v99.4h-.5z"/><path transform="rotate(-13.109 64.852 45.513)" style="fill:#8cba58" d="M64.6-4.19h.5v99.4h-.5z"/><path transform="rotate(-13.109 64.557 45.606)" style="fill:#8ab956" d="M64.3-4.09h.5v99.4h-.5z"/><path transform="rotate(-13.094 64.238 45.603)" style="fill:#88b855" d="M63.99-4.1h.5v99.4h-.5z"/><path transform="rotate(-13.069 63.84 45.717)" style="fill:#86b753" d="M63.59-3.98h.5v99.4h-.5z"/><path transform="rotate(-13.079 63.65 45.79)" style="fill:#84b651" d="M63.4-3.91h.5v99.4h-.5z"/><path transform="rotate(-13.109 63.252 45.902)" style="fill:#83b551" d="M63-3.8h.5v99.4H63z"/><path transform="rotate(-13.102 62.959 45.992)" style="fill:#82b450" d="M62.71-3.71h.5v99.4h-.5z"/><path transform="rotate(-13.119 62.542 46.01)" style="fill:#81b450" d="M62.29-3.69h.5v99.4h-.5z"/><path transform="rotate(-13.119 62.25 46.103)" style="fill:#80b34f" d="M62-3.6h.5v99.4H62z"/><path transform="rotate(-13.109 61.952 46.201)" style="fill:#7fb24f" d="M61.7-3.5h.5v99.4h-.5z"/><path transform="rotate(-13.069 61.651 46.295)" style="fill:#7eb14e" d="M61.4-3.41h.5v99.4h-.5z"/><path transform="rotate(-13.069 61.236 46.31)" style="fill:#7db04e" d="M60.99-3.39h.5v99.4h-.5z"/><path transform="rotate(-13.069 60.94 46.405)" style="fill:#7caf4d" d="M60.69-3.3h.5v99.4h-.5z"/><path transform="rotate(-13.119 60.652 46.492)" style="fill:#7aaf4d" d="M60.4-3.21h.5v99.4h-.5z"/><path transform="rotate(-13.109 60.257 46.612)" style="fill:#79ae4c" d="M60-3.09h.5v99.4H60z"/><path transform="rotate(-13.102 59.94 46.603)" style="fill:#78ad4c" d="M59.69-3.1h.5v99.4h-.5z"/><path transform="rotate(-13.109 59.64 46.7)" style="fill:#77ac4b" d="M59.39-3h.5v99.4h-.5z"/><path transform="rotate(-13.109 59.348 46.793)" style="fill:#76ab4b" d="M59.1-2.91h.5v99.4h-.5z"/><path transform="rotate(-13.109 58.953 46.907)" style="fill:#75aa4a" d="M58.7-2.79h.5v99.4h-.5z"/><path transform="rotate(-13.094 58.637 46.905)" style="fill:#74aa4a" d="M58.39-2.8h.5v99.4h-.5z"/><path transform="rotate(-13.079 58.343 46.997)" style="fill:#73a949" d="M58.1-2.7h.5v99.4h-.5z"/><path transform="rotate(-13.109 57.948 47.113)" style="fill:#72a849" d="M57.7-2.59h.5v99.4h-.5z"/><path transform="rotate(-13.109 57.653 47.204)" style="fill:#71a748" d="M57.4-2.5h.5v99.4h-.5z"/><path transform="rotate(-13.109 57.358 47.298)" style="fill:#70a648" d="M57.11-2.4h.5V97h-.5z"/><path transform="rotate(-13.109 57.037 47.294)" style="fill:#6fa547" d="M56.78-2.41h.5v99.4h-.5z"/><path transform="rotate(-13.119 56.648 47.404)" style="fill:#6ea547" d="M56.4-2.29h.5v99.4h-.5z"/><path transform="rotate(-13.109 56.35 47.502)" style="fill:#6ca446" d="M56.1-2.2h.5v99.4h-.5z"/><path transform="rotate(-13.079 56.057 47.595)" style="fill:#6ba346" d="M55.81-2.1h.5v99.4h-.5z"/><path transform="rotate(-13.069 55.636 47.613)" style="fill:#6aa245" d="M55.39-2.09h.5v99.4h-.5z"/><path transform="rotate(-13.109 55.343 47.703)" style="fill:#69a145" d="M55.09-2h.5v99.4h-.5z"/><path transform="rotate(-13.119 55.05 47.795)" style="fill:#68a044" d="M54.8-1.9h.5v99.4h-.5z"/><path transform="rotate(-13.109 54.753 47.89)" style="fill:#67a044" d="M54.5-1.81h.5v99.4h-.5z"/><path transform="rotate(-13.109 54.338 47.909)" style="fill:#669f43" d="M54.09-1.79h.5v99.4h-.5z"/><path transform="rotate(-13.102 54.045 47.997)" style="fill:#659e43" d="M53.8-1.7h.5v99.4h-.5z"/><path transform="rotate(-13.102 53.747 48.088)" style="fill:#649d42" d="M53.5-1.61h.5v99.4h-.5z"/><path transform="rotate(-13.094 53.356 48.21)" style="fill:#639c42" d="M53.11-1.49h.5v99.4h-.5z"/><path transform="rotate(-13.094 53.057 48.303)" style="fill:#629b41" d="M52.81-1.4h.5V98h-.5z"/><path transform="rotate(-13.109 52.74 48.3)" style="fill:#619b41" d="M52.49-1.4h.5V98h-.5z"/><path transform="rotate(-13.109 52.348 48.413)" style="fill:#5f9a40" d="M52.1-1.29h.5v99.4h-.5z"/><path transform="rotate(-13.109 52.051 48.507)" style="fill:#5e9940" d="M51.8-1.19h.5v99.4h-.5z"/><path transform="rotate(-13.109 51.757 48.6)" style="fill:#5d983f" d="M51.51-1.1h.5v99.4h-.5z"/><path transform="rotate(-13.119 51.441 48.593)" style="fill:#5c973f" d="M51.19-1.11h.5v99.4h-.5z"/><path transform="rotate(-13.102 51.047 48.705)" style="fill:#5b963e" d="M50.8-.99h.5v99.4h-.5z"/><path transform="rotate(-13.069 50.752 48.807)" style="fill:#5a963e" d="M50.5-.89h.5v99.4h-.5z"/><path transform="rotate(-13.069 50.45 48.897)" style="fill:#59953d" d="M50.2-.8h.5v99.4h-.5z"/><path transform="rotate(-13.109 50.14 48.893)" style="fill:#58943d" d="M49.89-.81h.5v99.4h-.5z"/><path transform="rotate(-13.109 49.745 49.008)" style="fill:#58933d" d="M49.49-.69h.5v99.4h-.5z"/><path transform="rotate(-13.119 49.45 49.096)" class="st122" d="M49.2-.6h.5v99.4h-.5z"/><path transform="rotate(-13.109 49.155 49.192)" class="st122" d="M48.9-.51h.5v99.4h-.5z"/><path transform="rotate(-13.109 48.759 49.307)" style="fill:#56913b" d="M48.51-.39h.5v99.4h-.5z"/><path transform="rotate(-13.109 48.442 49.305)" style="fill:#56903b" d="M48.19-.4h.5V99h-.5z"/><path transform="rotate(-13.069 48.144 49.4)" style="fill:#568f3b" d="M47.89-.3h.5v99.4h-.5z"/><path transform="rotate(-13.079 47.755 49.512)" style="fill:#558e3a" d="M47.51-.19h.5v99.4h-.5z"/><path transform="rotate(-13.109 47.438 49.508)" class="st127" d="M47.19-.19h.5v99.4h-.5z"/><path transform="rotate(-13.109 47.141 49.6)" class="st127" d="M46.89-.1h.5v99.4h-.5z"/><path transform="rotate(-13.109 46.846 49.69)" style="fill:#548c39" d="M46.59-.01h.5v99.4h-.5z"/><path transform="rotate(-13.109 46.453 49.81)" style="fill:#548b39" d="M46.2.11h.5v99.4h-.5z"/><path transform="rotate(-13.109 46.158 49.9)" style="fill:#538a38" d="M45.91.2h.5v99.4h-.5z"/><path transform="rotate(-13.119 45.842 49.893)" class="st131" d="M45.59.19h.5v99.4h-.5z"/><path transform="rotate(-13.069 45.44 50.012)" class="st131" d="M45.19.31h.5v99.4h-.5z"/><path transform="rotate(-13.079 45.152 50.104)" style="fill:#528837" d="M44.9.4h.5v99.4h-.5z"/><path transform="rotate(-13.102 44.858 50.195)" style="fill:#528737" d="M44.61.5h.5v99.4h-.5z"/><path transform="rotate(-13.109 44.438 50.214)" style="fill:#528637" d="M44.19.51h.5v99.4h-.5z"/><path transform="rotate(-13.109 44.146 50.307)" style="fill:#518536" d="M43.89.61h.5v99.4h-.5z"/><path transform="rotate(-13.119 43.85 50.399)" style="fill:#518436" d="M43.6.7h.5v99.4h-.5z"/><path transform="rotate(-13.109 43.554 50.493)" style="fill:#508435" d="M43.3.79h.5v99.4h-.5z"/><path transform="rotate(-13.109 43.138 50.514)" style="fill:#508335" d="M42.89.81h.5v99.4h-.5z"/><path transform="rotate(-13.069 42.837 50.605)" style="fill:#508235" d="M42.59.9h.5v99.4h-.5z"/><path transform="rotate(-13.069 42.543 50.698)" style="fill:#4f8134" d="M42.29 1h.5v99.4h-.5z"/><path transform="rotate(-13.119 42.155 50.81)" class="st141" d="M41.9 1.11h.5v99.4h-.5z"/><path transform="rotate(-13.102 41.862 50.9)" class="st141" d="M41.61 1.2h.5v99.4h-.5z"/><path transform="rotate(-13.109 41.538 50.903)" style="fill:#4e7f33" d="M41.29 1.2h.5v99.4h-.5z"/><path transform="rotate(-13.109 41.246 50.996)" class="st143" d="M40.99 1.3h.5v99.4h-.5z"/><path transform="rotate(-13.109 40.853 51.11)" class="st143" d="M40.6 1.41h.5v99.4h-.5z"/><path transform="rotate(-13.109 40.557 51.203)" class="st144" d="M40.3 1.5h.5v99.4h-.5z"/><path transform="rotate(-13.094 40.24 51.197)" class="st144" d="M39.99 1.5h.5v99.4h-.5z"/><path transform="rotate(-13.069 39.84 51.316)" class="st145" d="M39.59 1.62h.5v99.4h-.5z"/><path transform="rotate(-13.069 39.546 51.407)" class="st145" d="M39.3 1.71h.5v99.4h-.5z"/><path transform="rotate(-13.109 39.256 51.5)" style="fill:#4c7b31" d="M39 1.8h.5v99.4H39z"/><path transform="rotate(-13.102 38.939 51.492)" class="st147" d="M38.69 1.79h.5v99.4h-.5z"/><path transform="rotate(-13.109 38.544 51.608)" class="st147" d="M38.29 1.91h.5v99.4h-.5z"/><path transform="rotate(-13.119 38.25 51.7)" style="fill:#4c7931" d="M38 2h.5v99.4H38z"/><path transform="rotate(-13.109 37.953 51.795)" style="fill:#4b7930" d="M37.7 2.1h.5v99.4h-.5z"/><path transform="rotate(-13.069 37.556 51.91)" class="st150" d="M37.31 2.21h.5v99.4h-.5z"/><path transform="rotate(-13.079 37.245 51.909)" class="st150" d="M37 2.21h.5v99.4H37z"/><path transform="rotate(-13.069 36.942 51.998)" style="fill:#4b7730" d="M36.69 2.3h.5v99.4h-.5z"/><path transform="rotate(-13.119 36.553 52.11)" class="st152" d="M36.3 2.41h.5v99.4h-.5z"/><path transform="rotate(-13.109 36.258 52.208)" class="st152" d="M36.01 2.51h.5v99.4h-.5z"/><path transform="rotate(-13.102 35.944 52.2)" class="st153" d="M35.69 2.5h.5v99.4h-.5z"/><path transform="rotate(-13.102 35.647 52.291)" class="st153" d="M35.4 2.59h.5v99.4h-.5z"/><path transform="rotate(-13.109 35.252 52.412)" class="st154" d="M35 2.71h.5v99.4H35z"/><path transform="rotate(-13.094 34.955 52.504)" class="st154" d="M34.71 2.8h.5v99.4h-.5z"/><path transform="rotate(-13.094 34.641 52.502)" style="fill:#49732e" d="M34.39 2.8h.5v99.4h-.5z"/><path transform="rotate(-13.079 34.347 52.594)" class="st156" d="M34.1 2.89h.5v99.4h-.5z"/><path transform="rotate(-13.109 33.952 52.71)" class="st156" d="M33.7 3.01h.5v99.4h-.5z"/><path transform="rotate(-13.109 33.654 52.8)" class="st157" d="M33.4 3.1h.5v99.4h-.5z"/><path transform="rotate(-13.109 33.337 52.797)" class="st157" d="M33.09 3.1h.5v99.4h-.5z"/><path transform="rotate(-13.109 32.94 52.911)" class="st158" d="M32.69 3.21h.5v99.4h-.5z"/><path transform="rotate(-13.109 32.648 53.004)" class="st158" d="M32.4 3.3h.5v99.4h-.5z"/><path transform="rotate(-13.069 32.348 53.097)" style="fill:#476f2c" d="M32.1 3.4h.5v99.4h-.5z"/><path transform="rotate(-13.069 31.955 53.213)" style="fill:#476e2c" d="M31.71 3.51h.5v99.4h-.5z"/><path transform="rotate(-13.069 31.636 53.207)" style="fill:#466e2b" d="M31.39 3.51h.5v99.4h-.5z"/><path transform="rotate(-13.109 31.346 53.301)" class="st162" d="M31.09 3.6h.5V103h-.5z"/><path transform="rotate(-13.119 31.054 53.393)" class="st162" d="M30.8 3.69h.5v99.4h-.5z"/><path transform="rotate(-13.109 30.657 53.509)" style="fill:#466c2b" d="M30.41 3.81h.5v99.4h-.5z"/><path transform="rotate(-13.109 30.342 53.505)" style="fill:#456c2a" d="M30.09 3.8h.5v99.4h-.5z"/><path transform="rotate(-13.102 30.045 53.595)" style="fill:#456b2a" d="M29.8 3.89h.5v99.4h-.5z"/><path transform="rotate(-13.069 29.75 53.693)" style="fill:#456a2a" d="M29.5 3.99h.5v99.4h-.5z"/><path transform="rotate(-13.094 29.337 53.71)" style="fill:#446a2a" d="M29.09 4.01h.5v99.4h-.5z"/><path transform="rotate(-13.094 29.04 53.802)" style="fill:#44692a" d="M28.79 4.1h.5v99.4h-.5z"/><path transform="rotate(-13.109 28.744 53.895)" style="fill:#446929" d="M28.49 4.2h.5v99.4h-.5z"/><path transform="rotate(-13.109 28.35 54.01)" class="st170" d="M28.1 4.31h.5v99.4h-.5z"/><path transform="rotate(-13.109 28.055 54.103)" class="st170" d="M27.8 4.4h.5v99.4h-.5z"/><path transform="rotate(-13.109 27.756 54.195)" style="fill:#436729" d="M27.51 4.49h.5v99.4h-.5z"/><path transform="rotate(-13.119 27.347 54.211)" class="st172" d="M27.1 4.51h.5v99.4h-.5z"/><path transform="rotate(-13.094 27.048 54.307)" class="st172" d="M26.8 4.61h.5v99.4h-.5z"/><path transform="rotate(-13.069 26.752 54.401)" class="st173" d="M26.5 4.7h.5v99.4h-.5z"/><path transform="rotate(-13.079 26.437 54.395)" class="st173" d="M26.19 4.7h.5v99.4h-.5z"/><path transform="rotate(-13.109 26.041 54.513)" style="fill:#416428" d="M25.79 4.81h.5v99.4h-.5z"/><path transform="rotate(-13.109 25.747 54.604)" class="st175" d="M25.5 4.9h.5v99.4h-.5z"/><path transform="rotate(-13.119 25.455 54.693)" class="st175" d="M25.2 4.99h.5v99.4h-.5z"/><path transform="rotate(-13.109 25.057 54.812)" style="fill:#406228" d="M24.81 5.11h.5v99.4h-.5z"/><path transform="rotate(-13.109 24.74 54.807)" class="st177" d="M24.49 5.11h.5v99.4h-.5z"/><path transform="rotate(-13.069 24.438 54.9)" class="st177" d="M24.19 5.2h.5v99.4h-.5z"/><path transform="rotate(-13.069 24.144 54.993)" class="st177" d="M23.89 5.29h.5v99.4h-.5z"/><path transform="rotate(-13.079 23.76 55.109)" class="st178" d="M23.51 5.41h.5v99.4h-.5z"/><path transform="rotate(-13.109 23.437 55.103)" class="st178" d="M23.19 5.4h.5v99.4h-.5z"/><path transform="rotate(-13.109 23.143 55.196)" class="st178" d="M22.89 5.5h.5v99.4h-.5z"/><path transform="rotate(-13.109 22.749 55.313)" class="st178" d="M22.5 5.61h.5v99.4h-.5z"/><path transform="rotate(-13.109 22.454 55.406)" class="st178" d="M22.2 5.71h.5v99.4h-.5z"/><path transform="rotate(-13.109 22.137 55.4)" class="st178" d="M21.89 5.7h.5v99.4h-.5z"/><path transform="rotate(-13.094 21.842 55.493)" style="fill:#3f6028" d="M21.59 5.79h.5v99.4h-.5z"/><path transform="rotate(-13.094 21.45 55.609)" class="st180" d="M21.2 5.91h.5v99.4h-.5z"/><path transform="rotate(-13.069 21.146 55.701)" class="st180" d="M20.9 6h.5v99.4h-.5z"/><path transform="rotate(-13.102 20.86 55.793)" class="st180" d="M20.61 6.09h.5v99.4h-.5z"/><path transform="rotate(-13.109 20.442 55.81)" class="st181" d="M20.19 6.11h.5v99.4h-.5z"/><path transform="rotate(-13.109 20.145 55.904)" class="st181" d="M19.89 6.2h.5v99.4h-.5z"/><path transform="rotate(-13.119 19.853 55.994)" class="st182" d="M19.6 6.29h.5v99.4h-.5z"/><path transform="rotate(-13.109 19.556 56.09)" class="st182" d="M19.3 6.39h.5v99.4h-.5z"/><path transform="rotate(-13.109 19.14 56.108)" class="st182" d="M18.89 6.41h.5v99.4h-.5z"/><path transform="rotate(-13.069 18.84 56.201)" class="st182" d="M18.59 6.5h.5v99.4h-.5z"/><path transform="rotate(-13.079 18.55 56.296)" class="st183" d="M18.3 6.6h.5V106h-.5z"/><path transform="rotate(-13.119 18.158 56.408)" class="st183" d="M17.91 6.71h.5v99.4h-.5z"/><path transform="rotate(-13.102 17.862 56.499)" class="st184" d="M17.61 6.8h.5v99.4h-.5z"/><path transform="rotate(-13.102 17.546 56.494)" class="st184" d="M17.3 6.79h.5v99.4h-.5z"/><path transform="rotate(-13.109 17.25 56.592)" class="st184" d="M17 6.89h.5v99.4H17z"/><path transform="rotate(-13.109 16.853 56.706)" class="st184" d="M16.6 7.01h.5v99.4h-.5z"/><path transform="rotate(-13.109 16.538 56.702)" class="st184" d="M16.29 7h.5v99.4h-.5z"/><path transform="rotate(-13.094 16.24 56.793)" class="st184" d="M15.99 7.09h.5v99.4h-.5z"/><path transform="rotate(-13.069 15.843 56.909)" class="st185" d="M15.59 7.21h.5v99.4h-.5z"/><path transform="rotate(-13.109 15.552 57.003)" class="st185" d="M15.3 7.3h.5v99.4h-.5z"/><path transform="rotate(-13.109 15.258 57.097)" class="st186" d="M15.01 7.4h.5v99.4h-.5z"/><path transform="rotate(-13.102 14.844 57.11)" class="st186" d="M14.59 7.41h.5v99.4h-.5z"/><path transform="rotate(-13.102 14.548 57.204)" class="st186" d="M14.3 7.5h.5v99.4h-.5z"/><path transform="rotate(-13.119 14.255 57.3)" class="st186" d="M14 7.6h.5V107H14z"/><path transform="rotate(-13.109 13.957 57.393)" class="st187" d="M13.71 7.69h.5v99.4h-.5z"/><path transform="rotate(-13.069 13.536 57.41)" class="st187" d="M13.29 7.71h.5v99.4h-.5z"/><path transform="rotate(-13.079 13.247 57.504)" class="st187" d="M13 7.8h.5v99.4H13z"/><path transform="rotate(-13.109 12.948 57.595)" class="st187" d="M12.7 7.9h.5v99.4h-.5z"/><path transform="rotate(-13.119 12.556 57.708)" class="st187" d="M12.31 8.01h.5v99.4h-.5z"/><path transform="rotate(-13.109 12.24 57.707)" class="st187" d="M11.99 8.01h.5v99.4h-.5z"/><path transform="rotate(-13.102 11.945 57.798)" style="fill:#3b5b27" d="M11.69 8.1h.5v99.4h-.5z"/><path transform="rotate(-13.102 11.652 57.89)" class="st189" d="M11.4 8.19h.5v99.4h-.5z"/><path transform="rotate(-13.109 11.254 58.009)" class="st189" d="M11 8.31h.5v99.4H11z"/><path transform="rotate(-13.094 10.936 58.004)" class="st189" d="M10.69 8.3h.5v99.4h-.5z"/><path transform="rotate(-13.094 10.643 58.097)" class="st189" d="M10.4 8.4h.5v99.4h-.5z"/><path transform="rotate(-13.109 10.248 58.212)" class="st189" d="M10 8.51h.5v99.4H10z"/><path transform="rotate(-13.109 9.953 58.305)" class="st190" d="M9.7 8.61h.5v99.4h-.5z"/><path transform="rotate(-13.109 9.656 58.397)" class="st190" d="M9.41 8.7h.5v99.4h-.5z"/><path transform="rotate(-13.109 9.339 58.393)" class="st190" d="M9.09 8.69h.5v99.4h-.5z"/><path transform="rotate(-13.109 8.947 58.51)" class="st190" d="M8.7 8.81h.5v99.4h-.5z"/><path transform="rotate(-13.109 8.65 58.6)" class="st191" d="M8.4 8.9h.5v99.4h-.5z"/><path transform="rotate(-13.079 8.357 58.694)" class="st191" d="M8.11 8.99h.5v99.4h-.5z"/><path transform="rotate(-13.069 7.935 58.712)" class="st192" d="M7.69 9.01h.5v99.4h-.5z"/><path transform="rotate(-13.109 7.644 58.804)" class="st192" d="M7.39 9.1h.5v99.4h-.5z"/><path transform="rotate(-13.102 4.457 59.59)" class="st192" d="M1.21 9.89h6.5v99.4h-6.5z"/></g></svg>